<?xml version="1.0" encoding="UTF-8"?>
<svg xmlns="http://www.w3.org/2000/svg" xmlns:xlink="http://www.w3.org/1999/xlink" viewBox="0 0 512 512">
  <defs>
    <clipPath id="clippath">
      <circle cx="256" cy="257" r="201" style="fill: none;"/>
    </clipPath>
  </defs>
  <g id="Layer_2" data-name="Layer 2">
    <circle cx="256" cy="256" r="256" style="fill: #fff;"/>
  </g>
  <g id="Layer_3" data-name="Layer 3">
    <g style="clip-path: url(#clippath);">
      <g>
        <path d="m307.457,320.187c-2.595-6.105-5.235-12.05-7.917-17.822-28.292,11.98-68.042,37.983-106.156,76.662-7.104,7.209-14.388,14.992-21.857,23.392-95.486,107.387-191.375,222.379-207.54,408.29.004,0,.007-.002.011-.003,46.934-12.904,187.979-48.659,310.808-143.477,48.326-37.305,91.624-98.418,93.088-101.067-.148-1.423-1.12-76.88-37.394-183.378-9.526-27.969-15.839-45.542-23.042-62.596Z" style="fill: #1d69b5;"/>
        <path d="m276.873,259.154c-25.718-43.123-53.413-70.976-78.824-78.802-.027-.008-.249-.061-.598-.14,2.152,2.491,4.622,8.67,7.07,12.87.806,1.382,4.419,9.377,5.787,15.248,1.035,4.442,11.196,35.545-15.298,63.957-12.252,13.139-43.24,40.888-65.213,57.782-45.987,35.36-93.439,78.127-119.355,108.51-94.87,111.223-115.493,155.073-158.682,251.835-42.24,94.636-64.764,176.24-71.607,230.866,22.514-19.923,58.758-49.025,108.102-75.978,29.208-15.954,55.453-27.03,75.741-34.598-.004,0-.007.002-.011.003,16.165-185.912,112.054-300.903,207.54-408.29,47.545-53.471,94.448-85.842,128.013-100.053-.474-1.021-.953-2.022-1.43-3.032-6.858-14.534-13.964-27.984-21.237-40.179Z" style="fill: #164886;"/>
        <path d="m427.822,312.229c-.723-27.383-3.686-54.527-9.305-80.466-12.003,16.089-25.525,23.169-46.818,28.884-16.373,4.395-31.25,5.541-54.896,3.776-2.532-.189-10.091-.873-11.06-.969-7.041-.697-26.439-3.839-28.868-4.301,7.273,12.195,14.379,25.645,21.237,40.179.477,1.01.956,2.011,1.43,3.032,2.856,6.147,5.439,11.954,7.917,17.822,7.202,17.054,13.515,34.627,23.042,62.596,36.274,106.499,37.246,181.955,37.394,183.378,4.996-8.735,9.911-18.098,15.041-28.381,15.412-31.236,21.885-53.216,30.019-84.344,7.747-32.779,12.862-67.997,14.492-103.552.575-12.541.707-25.123.376-37.656Z" style="fill: #63a0cf;"/>
        <path d="m255.964,84.636c-35.7,0-102.136,10.85-109.99,65.315-7.901,6.557-16.093,14.723-23.139,24.593-22.17,31.056-1.734,55.172-1.734,55.172,0,0,.468-8.53,4.878-15.858,2.489-4.136,14.457-14.38,23.058-19.503,11.924-7.102,24.719-12.545,34.734-16.271,3.835,0,11.506,1.637,13.682,2.129.349.079.571.131.598.14,25.411,7.827,53.106,35.679,78.824,78.802,9.717,1.848,19.48,3.372,28.868,4.301,3.901.386,7.574.708,11.06.969,23.646,1.766,38.523.619,54.896-3.776,21.294-5.715,34.816-12.795,46.818-28.884-21.96-92.145-66.849-147.128-162.552-147.128Z" style="fill: #8cbcdb;"/>
      </g>
    </g>
  </g>
</svg>