<?xml version="1.0" encoding="UTF-8"?>
<svg id="Layer_2" data-name="Layer 2" xmlns="http://www.w3.org/2000/svg" xmlns:xlink="http://www.w3.org/1999/xlink" viewBox="0 0 109.87 144.103">
  <defs>
    <style>
      .cls-1, .cls-2 {
        stroke: #b02027;
        stroke-miterlimit: 10;
        stroke-width: 6px;
      }

      .cls-3 {
        clip-path: url(#clippath-1);
      }

      .cls-2 {
        fill: none;
      }

      .cls-4 {
        clip-path: url(#clippath);
      }
    </style>
    <clipPath id="clippath">
      <path stroke="#b02027" stroke-miterlimit="10" stroke-width="6px" d="m59.978,17.393c-.014-1.314.116-2.047.869-3.916,3.012-7.478,13.096-10.587,19.161-10.474,13.079.245,19.796,6.607,23.762,18.052,5.072,14.635,3.333,33.037-1.014,47.093-3.004,9.714-11.864,25.42-26.979,34.923-13.847,8.705-31.074,12.157-37.057,14.062-2.629.837-9.367,2.898-17.575,7.381-7.843,4.284-13.603,8.909-17.181,12.076,1.088-8.682,3.818-22.06,11.381-36.693,7.948-15.379,19.794-26.905,24.079-31.169,5.877-5.847,11.6-11.849,17.471-17.703,1.762-1.757,6.711-6.683,11.393-14.292,4.18-6.794,4.851-10.37,3.961-13.457-.219-.76-1.15-3.988-4.275-5.486-3.774-1.808-7.607-.628-7.996-.397Z"/>
    </clipPath>
    <clipPath id="clippath-1">
      <path stroke="#b02027" stroke-miterlimit="10" stroke-width="6px" d="m53.201,22.117s9.274-10.723,18.783-1.594c7.612,7.307,16.254,20.804,19.328,32.934,6.139,24.231-2.896,47.289-5.509,56.046C125.401,62.346,134.665,17.099,119.13,1.988c-9.964-9.693-34.556-4.944-53.029.601-11.108,3.334-12.901,19.529-12.901,19.529Z"/>
    </clipPath>
  </defs>
  <g id="Layer_5" data-name="Layer 5">
    <g>
      <path d="m59.978,17.393c-.014-1.314.116-2.047.869-3.916,3.012-7.478,13.096-10.587,19.161-10.474,13.079.245,19.796,6.607,23.762,18.052,5.072,14.635,3.333,33.037-1.014,47.093-3.004,9.714-11.864,25.42-26.979,34.923-13.847,8.705-31.074,12.157-37.057,14.062-2.629.837-9.367,2.898-17.575,7.381-7.843,4.284-13.603,8.909-17.181,12.076,1.088-8.682,3.818-22.06,11.381-36.693,7.948-15.379,19.794-26.905,24.079-31.169,5.877-5.847,11.6-11.849,17.471-17.703,1.762-1.757,6.711-6.683,11.393-14.292,4.18-6.794,4.851-10.37,3.961-13.457-.219-.76-1.15-3.988-4.275-5.486-3.774-1.808-7.607-.628-7.996-.397Z"/>
      <g clip-path="url(#clippath)">
        <path stroke="#b02027" stroke-miterlimit="10" stroke-width="6px" d="m83.437-13.625c2.636,10.427,11.207,53.324-5.313,83.419-17.098,31.149-43.562,54.236-51.681,57.617,7.583,3.737,9.215,10.548,23.136,9.274,40.066-3.667,77.325-52.048,69.697-96.648-4.579-26.772-27.261-47.072-35.839-53.661Z"/>
        <g>
          <path d="m53.201,22.117s9.274-10.723,18.783-1.594c7.612,7.307,16.254,20.804,19.328,32.934,6.139,24.231-2.896,47.289-5.509,56.046C125.401,62.346,134.665,17.099,119.13,1.988c-9.964-9.693-34.556-4.944-53.029.601-11.108,3.334-12.901,19.529-12.901,19.529Z"/>
          <g clip-path="url(#clippath-1)">
            <path stroke="#b02027" stroke-miterlimit="10" stroke-width="6px" d="m51.752,20.572c6.835,2.987,30.545,13.972,45.982,11.399,9.853-1.642,13.181-15.563,12.172-23.635-2.104-16.827-12.093-9.932-28.594-9.596-15.637.319-26.27,6.131-29.56,21.832Z"/>
          </g>
          <path fill="none" stroke="#b02027" stroke-miterlimit="10" stroke-width="6px" d="m53.201,22.117s9.274-10.723,18.783-1.594c7.612,7.307,16.254,20.804,19.328,32.934,6.139,24.231-2.896,47.289-5.509,56.046C125.401,62.346,134.665,17.099,119.13,1.988c-9.964-9.693-34.556-4.944-53.029.601-11.108,3.334-12.901,19.529-12.901,19.529Z"/>
        </g>
      </g>
      <path fill="none" stroke="#b02027" stroke-miterlimit="10" stroke-width="6px" d="m59.978,17.393c-.014-1.314.116-2.047.869-3.916,3.012-7.478,13.096-10.587,19.161-10.474,13.079.245,19.796,6.607,23.762,18.052,5.072,14.635,3.333,33.037-1.014,47.093-3.004,9.714-11.864,25.42-26.979,34.923-13.847,8.705-31.074,12.157-37.057,14.062-2.629.837-9.367,2.898-17.575,7.381-7.843,4.284-13.603,8.909-17.181,12.076,1.088-8.682,3.818-22.06,11.381-36.693,7.948-15.379,19.794-26.905,24.079-31.169,5.877-5.847,11.6-11.849,17.471-17.703,1.762-1.757,6.711-6.683,11.393-14.292,4.18-6.794,4.851-10.37,3.961-13.457-.219-.76-1.15-3.988-4.275-5.486-3.774-1.808-7.607-.628-7.996-.397Z"/>
    </g>
    <g id="Layer_12" data-name="Layer 12">
      <g id="Layer_9" data-name="Layer 9">
        <path d="m67.236,20.827c1.11.64,3.59,2.23,5.1,3.92,1.42,1.58,2.36,2.96,2.99,4.09-.28-.55-1.27-1.84-3.15-2.61-1.13-.46-2.63-.21-3.23-.21-.07-.59-.03-1.86-.26-2.62-.25-.84-1.16-2-1.45-2.57Z"/>
        <g id="Layer_10" data-name="Layer 10">
          <path d="m83.786,42.197c.96,1.77,1.89,3.85,2.76,6.18.54,1.44,1.02,2.74,1.37,4.04-.35-.74-.86-1.63-1.61-2.54-1.36-1.64-2.89-2.57-3.89-3.06.46-1.56.91-3.06,1.37-4.62Z"/>
        </g>
      </g>
    </g>
  </g>
</svg>