<?xml version="1.0" encoding="UTF-8"?>
<svg id="Layer_2" data-name="Layer 2" xmlns="http://www.w3.org/2000/svg" xmlns:xlink="http://www.w3.org/1999/xlink" viewBox="0 0 102.9 133.59">
  <defs>
    <clipPath id="clippath">
      <path fill="none" d="m56.01,14.39c-.01-1.31.12-2.05.87-3.92C59.89,3,69.98-.11,76.04,0c13.08.24,19.8,6.61,23.76,18.05,5.07,14.63,3.33,33.04-1.01,47.09-3,9.71-11.86,25.42-26.98,34.92-13.85,8.71-31.07,12.16-37.06,14.06-2.63.84-9.37,2.9-17.58,7.38-7.84,4.28-13.6,8.91-17.18,12.08,1.09-8.68,3.82-22.06,11.38-36.69,7.95-15.38,19.79-26.91,24.08-31.17,5.88-5.85,11.6-11.85,17.47-17.7,1.76-1.76,6.71-6.68,11.39-14.29,4.18-6.79,4.85-10.37,3.96-13.46-.22-.76-1.15-3.99-4.28-5.49-3.77-1.81-7.61-.63-8-.4Z"/>
    </clipPath>
    <clipPath id="clippath-1">
      <path fill="none" d="m49.24,19.12s9.27-10.72,18.78-1.59c7.61,7.31,16.25,20.8,19.33,32.93,6.14,24.23-2.9,47.29-5.51,56.05C121.44,59.35,130.7,14.1,115.17-1.01c-9.96-9.69-34.56-4.94-53.03.6-11.11,3.33-12.9,19.53-12.9,19.53Z"/>
    </clipPath>
  </defs>
  <g id="Layer_6" data-name="Layer 6">
    <path fill="#174887" d="m56.01,14.39c-.01-1.31.12-2.05.87-3.92C59.89,3,69.98-.11,76.04,0c13.08.24,19.8,6.61,23.76,18.05,5.07,14.63,3.33,33.04-1.01,47.09-3,9.71-11.86,25.42-26.98,34.92-13.85,8.71-31.07,12.16-37.06,14.06-2.63.84-9.37,2.9-17.58,7.38-7.84,4.28-13.6,8.91-17.18,12.08,1.09-8.68,3.82-22.06,11.38-36.69,7.95-15.38,19.79-26.91,24.08-31.17,5.88-5.85,11.6-11.85,17.47-17.7,1.76-1.76,6.71-6.68,11.39-14.29,4.18-6.79,4.85-10.37,3.96-13.46-.22-.76-1.15-3.99-4.28-5.49-3.77-1.81-7.61-.63-8-.4Z"/>
    <g clip-path="url(#clippath)">
      <path fill="#1b69b3" d="m79.47-16.62c2.64,10.43,11.21,53.32-5.31,83.42-17.1,31.15-43.56,54.24-51.68,57.62,7.58,3.74,9.21,10.55,23.14,9.27,40.07-3.67,77.33-52.05,69.7-96.65-4.58-26.77-27.26-47.07-35.84-53.66Z"/>
      <path fill="#3e96d2" d="m57.16-1.27c4,3.55,2.27,11.17,13.16,21.15,7.42,6.8,11.22,18.52,14.05,29.69,6.14,24.23,3.76,42.31,1.14,51.07C125.11,53.49,134.37,8.24,118.84-6.87c-15.96-15.52-55.9,3.09-61.68,5.6Z"/>
      <g clip-path="url(#clippath-1)">
        <path fill="#85c5eb" d="m47.79,17.57c6.83,2.99,30.55,13.97,45.98,11.4,9.85-1.64,13.18-15.56,12.17-23.63-2.1-16.83-12.09-9.93-28.59-9.6-15.64.32-26.27,6.13-29.56,21.83Z"/>
      </g>
    </g>
  </g>
</svg>