<?xml version="1.0" encoding="UTF-8"?>
<svg id="Layer_2" data-name="Layer 2" xmlns="http://www.w3.org/2000/svg" viewBox="0 0 311.68 69.84">
  <g id="_图层_1" data-name="图层 1">
    <g>
      <g>
        <path d="m82.6,64.77h5.21v.55h-6.11v-.19l5.27-7.96h-4.85v-.55h5.78v.16l-5.29,8Z" style="fill: #003f89;"/>
        <path d="m98.31,65.31v-4.18h-4.98v4.18h-.6v-8.71h.6v3.98h4.98v-3.98h.6v8.71h-.6Z" style="fill: #003f89;"/>
        <path d="m103.63,65.31v-8.71h4.07v.55h-3.47v3.49h3.22v.55h-3.22v3.57h3.67v.55h-4.27Z" style="fill: #003f89;"/>
        <path d="m115.17,62.31c0,2.1-.73,3.15-2.19,3.15-.23,0-.45-.03-.66-.09v-.58c.24.08.46.12.67.12.56,0,.96-.21,1.21-.63.25-.42.37-1.08.37-1.98v-5.69h.59v5.71Z" style="fill: #003f89;"/>
        <path d="m119.85,65.31v-8.71h.6v8.71h-.6Z" style="fill: #003f89;"/>
        <path d="m131.34,65.31l-1-2.71h-3.78l-1,2.71h-.66l3.28-8.71h.57l3.25,8.71h-.67Zm-2.67-7.29c-.04-.12-.08-.24-.11-.36-.03-.1-.06-.2-.09-.3h-.02c-.07.27-.14.48-.2.65l-1.46,4.04h3.36l-1.47-4.02Z" style="fill: #003f89;"/>
        <path d="m142.87,65.31l-5.19-7.04c-.11-.14-.2-.28-.28-.43l-.08-.12h-.02c0,.11.01.23.01.38v7.2h-.6v-8.71h.46l5.15,6.98c.11.15.24.34.37.56h.03c-.02-.28-.03-.53-.03-.73v-6.81h.6v8.71h-.42Z" style="fill: #003f89;"/>
        <path d="m154.52,64.71c-.9.51-1.82.76-2.77.76-1.19,0-2.15-.4-2.88-1.21-.73-.8-1.1-1.86-1.1-3.17s.39-2.42,1.18-3.3c.79-.88,1.84-1.32,3.16-1.32.77,0,1.51.15,2.23.46v.66c-.79-.38-1.56-.57-2.31-.57-1.1,0-1.98.38-2.64,1.12-.67.75-1,1.7-1,2.87,0,1.22.31,2.18.94,2.87.62.69,1.47,1.04,2.53,1.04.79,0,1.47-.17,2.06-.51v-2.87h-2.05v-.55h2.65v3.72Z" style="fill: #003f89;"/>
        <path d="m172.33,61.84c0,2.42-1.03,3.63-3.1,3.63s-2.94-1.17-2.94-3.5v-5.36h.6v5.28c0,2.02.82,3.03,2.46,3.03s2.39-.98,2.39-2.95v-5.36h.6v5.23Z" style="fill: #003f89;"/>
        <path d="m183.1,65.31l-5.19-7.04c-.1-.14-.2-.28-.28-.43l-.08-.12h-.02c0,.11.01.23.01.38v7.2h-.6v-8.71h.46l5.15,6.98c.11.15.24.34.37.56h.03c-.02-.28-.03-.53-.03-.73v-6.81h.6v8.71h-.42Z" style="fill: #003f89;"/>
        <path d="m188.19,65.31v-8.71h.6v8.71h-.6Z" style="fill: #003f89;"/>
        <path d="m197.02,65.31h-.45l-3.18-8.71h.67l2.52,7.01c.1.29.18.57.22.83h.02c.04-.21.12-.49.25-.84l2.68-7h.64l-3.38,8.71Z" style="fill: #003f89;"/>
        <path d="m205.01,65.31v-8.71h4.07v.55h-3.47v3.49h3.22v.55h-3.22v3.57h3.67v.55h-4.27Z" style="fill: #003f89;"/>
        <path d="m218.41,65.31l-1.16-2.55c-.24-.53-.48-.88-.72-1.06-.24-.18-.54-.27-.9-.27h-1.08v3.88h-.6v-8.71h2.42c.77,0,1.37.21,1.81.62.44.42.66.96.66,1.64,0,.63-.18,1.15-.54,1.57-.36.42-.86.69-1.51.81v.02c.34.14.68.56,1.01,1.26l1.29,2.77h-.68Zm-3.85-8.15v3.73h1.5c.66,0,1.19-.17,1.58-.52.39-.35.59-.83.59-1.43,0-.55-.18-.99-.53-1.3-.35-.31-.86-.47-1.51-.47h-1.63Z" style="fill: #003f89;"/>
        <path d="m223.82,65v-.69c.62.4,1.25.6,1.89.6.68,0,1.2-.14,1.55-.42.35-.28.53-.67.53-1.18,0-.44-.12-.8-.36-1.07-.24-.26-.75-.63-1.54-1.08-.88-.51-1.44-.94-1.68-1.29-.23-.35-.35-.75-.35-1.2,0-.62.24-1.14.72-1.57.48-.43,1.12-.64,1.91-.64.52,0,1.04.09,1.55.26v.63c-.51-.23-1.05-.35-1.63-.35s-1.06.15-1.41.45c-.35.3-.52.68-.52,1.14s.12.8.36,1.06c.24.26.75.62,1.53,1.07.81.46,1.35.87,1.62,1.23.27.36.4.77.4,1.24,0,.67-.23,1.21-.69,1.63-.46.42-1.12.63-1.96.63-.3,0-.64-.05-1.04-.14-.39-.09-.69-.2-.9-.32Z" style="fill: #003f89;"/>
        <path d="m233.01,65.31v-8.71h.6v8.71h-.6Z" style="fill: #003f89;"/>
        <path d="m241.19,57.16v8.15h-.6v-8.15h-2.51v-.55h5.62v.55h-2.51Z" style="fill: #003f89;"/>
        <path d="m251.43,62v3.31h-.59v-3.3l-2.67-5.41h.67l2.03,4.2c.07.15.16.36.27.64h.02c.06-.15.16-.36.3-.63l2.12-4.21h.65l-2.81,5.4Z" style="fill: #003f89;"/>
      </g>
      <line x1="81.29" y1="34.19" x2="309.03" y2="34.19" style="fill: #003f89; stroke: #004088; stroke-miterlimit: 10; stroke-width: .74px;"/>
      <g>
        <path d="m152.49,26.66c-1.06-.23-.43-.56-.6-1.47-.14-.78-.85-1.55-.83-2.13.06-1.56,2.06-1.46,3.28-.96.22.09.47.42.69.74.56.8,1.21,1.97.35,2.85-.75.76-1.97,1.17-2.89.97" style="fill: #003f89; fill-rule: evenodd;"/>
        <path d="m140.42,25.04s-.07-.03-.1-.04c.01-.12.02-.23.03-.34.33-.13,3.22-2.01,3.21-2.09.84-.67,1.6-1.42,1.83-2.49-2.07.68-4.03,2.18-6.17,2.34-.99-.25-1.67-.79-2.37-1.09,0-.05,0-.09,0-.12-1.13-.74-1.24-1.69.01-2.11,2.16.48,5.46-1.06,7.49-1.84.46-.2,1.77-.67,2.12-1.08.48-2.85.17-5.7.34-8.42.69-1.97,1.92-.63,3.14.36.08.16.36.34.61.71.03,0,.07,0,.12,0,.52.82.66,1.2-.14,1.96-.54,1.34-.8,2.82-.73,4.36,1.48-.21,2.38-1.51,4.09-1.53.41.8.36,1.47-.4,2.13-1.25.6-2.61,1.14-4.03,1.78-.33,1.44-.9,3.2-1.91,4.37-.15.17-.88.85-1.06.95-.92.54-1.75,1.18-2.75,1.47-2.78.77-2.81.64-3.32.71" style="fill: #003f89; fill-rule: evenodd;"/>
        <path d="m113.83,29.89c-1.02-.47-1.95-1.71-2.51-2.48.09-.27.19-.55.3-.8,2.41-1.81,4.8-3.48,6.99-5.64.66-1.02,1.53-2.08,2.24-3.09.03-.02.08-.04.12-.04,0-.05,0-.08,0-.11.62-.48.88-.61,1.4.18.04.66-1.15,1.37-1.52,1.99-.46,1.18-.99,2.38-1.59,3.58q-.19.22-.96,1.48c-.65.5-1.51,1.81-1.87,2.61-.76.44-1.09,1.79-2,2.26-.21.01-.39.04-.58.07" style="fill: #003f89; fill-rule: evenodd;"/>
        <path d="m128.07,21.44c-1.49-.06-1.91-1.02-2.72-1.88-.02-.39.21-.63.24-.9q.37-.09.6-.23c.62-.09.85-.05,1.52-.09.86-.19,3.05-1.7,3.78-1.05.11,1.81-1.86,3.63-3.43,4.15" style="fill: #003f89; fill-rule: evenodd;"/>
        <path d="m116.65,18.59c-.57-.5-.68-2.79-.73-3.52.42-1.29,1.72-1.34,2.8-.5.86,1.13,1.44,1.6.54,2.91-1.02.88-1.47.94-2.61,1.11" style="fill: #003f89; fill-rule: evenodd;"/>
        <path d="m127.67,17.47c-.15-.7.81-2.19.53-2.55-.36.05-.73.19-1.11.21-.89-.43-1.88-1.52-1.52-2.36.66-.75.41-.56,1.44-.62.99-.44,1.97-.87,2.97-1.29,1.67-.31,2.44.61,2.54,2.24-.3,1.06-1,1.89-1.69,2.72-.89.48-1.69,1.02-2.49,1.54-.23.03-.45.08-.67.12" style="fill: #003f89; fill-rule: evenodd;"/>
        <path d="m118.54,12.75c-.35-.31-.2-.48-.02-.79-.04-.69-.46-1.25-.5-1.91.22-1.21,0-1.66,1-2.24.78.35,3.5,1.73,2.85,3.26-.75.95-2.26,1.55-3.33,1.68" style="fill: #003f89; fill-rule: evenodd;"/>
        <path d="m83.32,31.02c-1.62-.62-3.03-3.82-1.08-4.61.05-.28.29-.57.53-.65,0-.05,0-.09,0-.12,1.57-1.52,2.6-3.64,3.92-5.32.34-.64.52-1.25,1.25-1.43.36.32.24,1.05.13,1.61.16.14.72.04,1.06-.07,1.09-.94,2.51-1.77,3.6-2.76.06-.49.11-.97.19-1.44-.76.18-3.26.77-2.66-.64.94-.37,2.36-1.17,2.86-2.19.24-1.03.11-2.17.62-2.9,1.05-.54,2.29.79,2.5,1.92.42.75,1.74-.18.1,2.12-.35.26-.33.76-.26,1.28.12,0,.24.02.36.03.92-.66,1.92-1.37,2.96-1.97.29-1.48.52-2.71,1.23-3.95,1.02-.7,2.4.06,3.4.85.77-.05,1.25-.37,1.93-.88q.27-.08.78-.08c.21.36.29.74.32,1.28-.49,1.5-4.79,1.99-3.97,3.74.75-.05,1.01-.87,1.29-1.42.84-.45,2.66.09,3.54.74.98,1.19.22,1.6-.87,2.35-.11.16-.22.32-.31.48q-.07,2.41-.04,5.66c-.37.88-.64,1.31-1.32,2.02,0,.03,0,.07,0,.1-.05,0-.09,0-.12,0-.42.73-1.44,1.44-2.04.76-.01-2.67.14-5.44.05-7.99-.05,0-.1.02-.13.04-.19,1.3-1.5,3.75-2.61,4.55-1.03.06-1.89-.53-2.18-1.41.1-.26.31-.33.52-.51.58-1.18.41-3.37.4-4.53-.83.12-2.24,2.01-2.87,2.71-.42.33-.85.67-1.26,1.01-.3.99-.53,1.97-.79,3.03-.23.47-.46.97-.68,1.46-.05,0-.09,0-.12,0-.39.66-1.65,2.38-2.4,1.3,0-.15-.02-.29,0-.43.63-.93,1.11-2.23,1.13-3.29-1.03.34-1.7,1.27-2.73,1.33-.59-.12-1.18-.3-1.57-.5,0-.05,0-.09,0-.12-.25-.16-.5-.38-.65-.32-.19.58-.37,1.17-.54,1.77-1.06,2.21-1.84,4.38-2.52,6.8-.39.38-.52.44-.93.54" style="fill: #003f89; fill-rule: evenodd;"/>
        <path d="m85.34,18.3c-.32-.46.07-1.07.09-1.6-.5-1.51-.9-2.64.06-3.91.15-.03.31-.03.46-.05.7.49,1.69,1.61,2.29,2.41.73,1.81-1.6,2.62-2.91,3.15" style="fill: #003f89; fill-rule: evenodd;"/>
        <path d="m86.79,12.45c-.38-.13-.37-.22-.45-.35.18-.37.36-.59.28-.96-.93-1.42-.87-3.58.73-4.3.47.05.47.45.68,1.09,1.04,1.01,2.98,2.27,1.14,3.64-.78.34-1.62.61-2.39.88" style="fill: #003f89; fill-rule: evenodd;"/>
        <path d="m164.01,17.99c-1.45-.45-1.17-2.83-.93-3.79,1.06-.67,2.45.73,2.52,1.97-.27,1.37-.26,1.57-1.59,1.82" style="fill: #003f89; fill-rule: evenodd;"/>
        <path d="m171.85,28.96c-.05-.03-.09-.06-.13-.08-1.85.12-3.62-.06-5.28-.65q-.08-.14-.09-.37c.98-.57,2.36-.41,3.1-1.44.12-.8.21-1.48.13-2.17-1.84.12-2.82,1.41-4.27,1.94-1.24.08-3.46-1.05-3.83-2.04,0-1.6.33-.88,2.05-.99,2.04-.36,4.08-1.53,6.05-2.4q.42-.32.65-.41c.44-1.33.75-1.57,2.13-1.84q.54-.27,2.12-1.23c.04-.15.08-.31.14-.46-2.4.28-4.34,2.23-6.25,3.51-.95.26-1.67.1-2.33-.19-.42.06-2.81.48-1.65-.47.71-.28,1.25-.79,2.01-1.12,1.8-1.21,3.88-2.25,5.82-3.37-.02-.3-.13-.46-.19-.55,0-.41.08-.61.2-.92-.37.12-.47.1-.53.37-1.15.51-1.64,1.55-2.61.45-.26,1.01-.98,1.71-1.99,1.78-1.03-.53-1.05-2.25-1.24-3.05-.07-.09-.22-.76-.5-1.54-.47-.95-1.32-2.01-.75-2.87.73-.45,1.02-.62,1.64.37.53.41,1.21.95,1.74,1.66.04,0,.07,0,.12,0,.33.87,1.12,2.02,1.04,3.14.54-.32,1.31-.94.91-1.63-.89-.48-.39-1.31.24-1.62q.44.02,1.01-.03c-.01-.22-.03-.22-.14-.35-.74-.25-.6-.43-.4-1.04-.87-.32-1.19-1.23-.86-1.87q2.51-.63,3.69-1.01c.78-.97,1.63-3.64,3.15-3.15.47.56.8,1.5.71,2.44-.19.4-.46.74-.53,1.18.15-.01.3,0,.45,0,1.05-.52,1.54-1.14,2.16.42,1.01.55,1.38.41,1,1.88-.74,1.48-1.53,3.07-2.35,4.55-.01.07-.03.14-.02.2.19.04.37.08.56.14.11.67.13,1.49.11,2.31-.63.93-1.43.93-2.44,1.06-1.28.64-2.43,1.17-3.63,1.88,0,.24-.04.48.08.79.61-.02,1.23-.02,1.86-.03.69.45.63,1.7.2,2.43-.7.1-1.12.19-1.66.48-.06.34-.13.68-.19,1.04.05,1.33.74,4.54-1.23,4.85m3.93-16.41c.62-.63,1.05-1.25,1-2.11-.52-.45-1.42-.52-1.96-.49q-.07.24-.69,1.4c.05.03.12.06.19.09-.06.02-.13.04-.18.08,0,.03.02.06.04.11.27.04.43-.18.55-.37.97-.16.99.19.92,1.22.04.02.07.03.12.06" style="fill: #003f89; fill-rule: evenodd;"/>
      </g>
      <g>
        <path d="m34.92,0c19.23,0,34.92,15.69,34.92,34.92s-15.69,34.92-34.92,34.92S0,54.16,0,34.92,15.69,0,34.92,0m0,1.39C16.46,1.39,1.39,16.46,1.39,34.92s15.06,33.53,33.53,33.53,33.53-15.06,33.53-33.53S53.39,1.39,34.92,1.39" style="fill: #003f89;"/>
        <path d="m22.66,49.81c-2.18-1.81-3.97-4.09-5.2-6.68-1.18-2.49-1.84-5.27-1.84-8.21,0-10.63,8.67-19.3,19.3-19.3s19.3,8.67,19.3,19.3c0,2.93-.66,5.72-1.84,8.21-1.22,2.59-3.01,4.87-5.2,6.68l-.44-.54c2.11-1.75,3.83-3.94,5.01-6.44,1.13-2.4,1.77-5.09,1.77-7.91,0-10.25-8.36-18.61-18.61-18.61s-18.61,8.36-18.61,18.61c0,2.83.64,5.51,1.77,7.91,1.18,2.49,2.9,4.69,5.01,6.44l-.44.54Z" style="fill: #003f89;"/>
        <polygon points="5.02 46.59 3.7 43.05 4.42 42.8 10.46 43.72 9.53 41.24 10.25 40.99 11.45 44.23 10.74 44.47 4.7 43.56 5.73 46.33 5.02 46.59" style="fill: #003f89; fill-rule: evenodd;"/>
        <polygon points="7.31 51.4 6.95 50.69 9.79 49.24 8.89 47.49 6.05 48.94 5.69 48.23 11.76 45.12 12.12 45.82 9.56 47.13 10.46 48.89 13.02 47.57 13.38 48.28 7.31 51.4" style="fill: #003f89; fill-rule: evenodd;"/>
        <polygon points="10.19 55.24 8.04 52.23 13.73 48.69 15.78 51.56 15.15 51.96 13.58 49.77 11.82 50.87 13.26 52.88 12.62 53.27 11.19 51.26 9.16 52.52 10.83 54.85 10.19 55.24" style="fill: #003f89; fill-rule: evenodd;"/>
        <polygon points="15.03 59.98 14.31 59.37 18.5 54.22 19.22 54.83 15.03 59.98" style="fill: #003f89; fill-rule: evenodd;"/>
        <path d="m18.28,62.24l.86-1.83-1.04-.75-1.55,1.51-.71-.55,4.91-4.85.99.6-2.62,6.34-.84-.47Zm1.25-2.72l1.02-2.35-.09-.08-1.77,1.81.84.62Z" style="fill: #003f89; fill-rule: evenodd;"/>
        <polygon points="23.2 64.62 22.31 64.21 22.83 59.48 20.89 63.46 20 63.05 23.08 56.96 23.88 57.33 23.51 61.82 25.51 58.11 26.25 58.42 23.2 64.62" style="fill: #003f89; fill-rule: evenodd;"/>
        <path d="m27.78,65.99l-.57-.19.05-.54c-.13.11-.31.19-.53.22-.22.04-.44.02-.67-.06-.47-.15-.82-.52-1.05-1.11-.23-.59-.18-1.4.14-2.43.35-1.13.78-1.91,1.28-2.35.5-.44,1.28-.68,1.96-.47.73.23,1.21,1.14,1,2.38l-.87-.07c.15-.53.07-1.37-.45-1.54-.43-.14-.9,0-1.2.33-.3.34-.6.97-.88,1.91-.27.89-.35,1.53-.23,1.94.12.41.33.66.62.76.29.09.56.06.8-.12.24-.17.43-.5.58-.98l.12-.4-1.05-.34.22-.68,1.72.56-.98,3.17Z" style="fill: #003f89; fill-rule: evenodd;"/>
        <path d="m36.86,64.48c-.02.62-.19,1.1-.49,1.44-.31.35-.78.51-1.42.48-.64-.02-1.11-.22-1.39-.59-.28-.37-.41-.86-.4-1.48l.15-4.65.82.04-.15,4.65c-.02.44.07.76.26.97.18.21.43.32.74.34.31.01.56-.08.76-.28.2-.2.3-.51.32-.95l.15-4.65.82.03-.15,4.65Z" style="fill: #003f89; fill-rule: evenodd;"/>
        <polygon points="41.52 65.72 40.79 65.84 38.48 61.4 38.84 66.17 37.97 66.29 37.46 59.61 38.46 59.52 40.36 62.63 40.01 59.28 40.73 59.15 41.52 65.72" style="fill: #003f89; fill-rule: evenodd;"/>
        <polygon points="44.01 65.03 43.16 65.29 41.38 58.97 42.23 58.7 44.01 65.03" style="fill: #003f89; fill-rule: evenodd;"/>
        <polygon points="46.32 57.02 47.4 64 46.56 64.41 42.86 58.49 43.68 58.14 46.25 62.18 45.53 57.36 46.32 57.02" style="fill: #003f89; fill-rule: evenodd;"/>
        <polygon points="53.19 60.97 50.07 62.66 46.67 56.82 49.64 55.22 50.02 55.87 47.75 57.09 48.81 58.9 50.89 57.78 51.26 58.42 49.19 59.55 50.4 61.63 52.81 60.32 53.19 60.97" style="fill: #003f89; fill-rule: evenodd;"/>
        <path d="m56.74,58.48l-.69.59-2.42-2.01-.62.57,1.63,2.22-.69.71-4-5.62,1.27-.91c.41-.29.94-.5,1.43-.44,1.24.15,1.78.99,1.72,1.96-.02.31-.04.61-.16.91l2.52,2Zm-4.31-3.96c-.51-.13-.91.26-1.27.54l1.33,1.76c.41-.3.59-.36.9-.89.13-.64-.15-1.2-.96-1.41" style="fill: #003f89; fill-rule: evenodd;"/>
        <path d="m58.9,53.05c1.4.84,1.07,3.22-.76,3.5-.49.07-1.08-.08-1.32-.23l.31-.71c.3.06.61.18.9.12,1.19-.23,1.14-1.46.44-1.97-.24-.18-.58-.2-.87-.17-.8.09-1.32.69-2.21.75-.97.06-1.65-.54-1.82-1.49-.08-.5.04-.99.29-1.38.51-.81,1.61-.92,2.41-.45l-.31.73c-.43-.22-1.2-.22-1.49.23-.15.23-.2.48-.16.72.1.54.46.86.98.79.87-.1,1.45-.81,2.3-.79.4.01.88.11,1.29.36" style="fill: #003f89; fill-rule: evenodd;"/>
        <polygon points="61.85 52.19 61.35 52.81 55.59 49.2 56.09 48.58 61.85 52.19" style="fill: #003f89; fill-rule: evenodd;"/>
        <polygon points="58.94 44.91 58.31 46.09 63.74 49.29 63.37 49.96 57.94 46.77 57.3 47.95 56.63 47.55 58.27 44.51 58.94 44.91" style="fill: #003f89; fill-rule: evenodd;"/>
        <polygon points="59.94 40.42 63.25 43.38 65.47 44.33 65.2 45.08 63.15 44.28 58.43 44.18 58.65 43.42 61.95 43.47 59.62 41.33 59.94 40.42" style="fill: #003f89; fill-rule: evenodd;"/>
        <path d="m14.52,57c-.59.59-1.13.89-1.64.91-.51.02-.97-.19-1.38-.61-.37-.38-.56-.83-.56-1.34,0-.26.08-.53.23-.8l.75.46c-.07.13-.1.25-.1.37,0,.28.08.51.26.69.25.26.52.37.79.35.28-.02.61-.23,1.01-.63l3.32-3.29.62.63-3.29,3.25Z" style="fill: #003f89; fill-rule: evenodd;"/>
        <path d="m25.81,55.85l-2.32-1.44.21-.37.86.53,1.38-2.41-.87-.54.19-.32c.33.2.59.32.78.34.19.03.36-.05.49-.24l.5.31-1.86,3.23.84.53-.21.36Zm6.94-1.47c.04-.19-.02-.35-.19-.5-.17-.15-.42-.25-.76-.3-.31-.04-.58-.02-.8.06-.22.08-.35.22-.39.41-.03.14,0,.26.08.37.08.11.21.21.4.32.08.04.21.11.38.19.17.08.33.14.47.2.27-.09.46-.19.58-.31.12-.12.19-.26.23-.43m-.3,2.08c.03-.17.01-.31-.07-.42-.08-.12-.26-.24-.54-.39-.09-.04-.21-.09-.36-.16-.15-.06-.33-.14-.52-.22-.26.07-.46.17-.62.3-.15.12-.25.29-.29.48-.05.25.03.47.23.67.2.19.47.32.83.37.36.05.66.02.91-.09.25-.11.39-.28.44-.52m-1.44,1.02c-.32-.04-.6-.11-.85-.21-.25-.1-.45-.22-.61-.35-.16-.14-.27-.29-.33-.45-.06-.17-.07-.33-.04-.5.04-.22.18-.41.4-.58.22-.16.52-.27.89-.33v-.02c-.29-.16-.49-.32-.62-.48-.12-.16-.16-.35-.12-.55.06-.31.29-.54.7-.7.41-.16.89-.19,1.44-.12.58.08,1.03.24,1.34.49.31.24.43.52.37.82-.04.19-.16.36-.36.51-.2.16-.47.26-.81.32v.02c.34.16.6.34.76.52.16.19.21.41.16.66-.07.35-.33.62-.77.8-.45.18-.96.23-1.56.15m8.05-2.55c0-.28-.04-.51-.12-.69-.08-.18-.19-.32-.32-.42-.12-.08-.25-.15-.38-.18-.12-.03-.26-.05-.41-.05-.35,0-.62.08-.82.24-.21.17-.31.41-.31.72,0,.17.03.32.1.44.07.11.18.21.33.29.1.06.23.1.36.12.13.02.28.03.43.03.18,0,.38-.02.58-.06.21-.04.39-.1.54-.17,0-.03,0-.06.01-.11,0-.05,0-.1,0-.16m-3.22-.35c0-.22.06-.42.16-.59.11-.18.25-.33.43-.46.18-.12.39-.22.64-.29.25-.07.5-.11.76-.11.29,0,.55.04.78.1.24.06.43.16.61.28.22.15.38.35.5.6.12.25.18.57.18.95,0,.34-.06.67-.18.98-.12.31-.29.57-.52.78-.24.21-.53.38-.87.49-.34.11-.76.17-1.25.17-.11,0-.23,0-.36-.01-.13-.01-.25-.03-.36-.05v-.54h.04c.07.03.18.06.33.08.15.02.3.03.45.03.55,0,.98-.12,1.3-.36.31-.24.49-.58.53-1.03-.22.1-.44.18-.64.22-.2.05-.43.07-.67.07s-.44-.02-.63-.05c-.19-.03-.38-.1-.57-.2-.23-.11-.4-.26-.51-.43-.12-.18-.17-.38-.17-.63m9.12-3.58l-.15,4.31-.66.41.06-4.07-2.52,1.22-.22-.49,3.16-1.64.33.26Z" style="fill: #003f89; fill-rule: evenodd;"/>
        <g>
          <path d="m46.32,16.13c-.51-.25-.15-.34-.12-.81.02-.41-.24-.88-.16-1.17.22-.78,1.22-.48,1.77-.08.1.07.19.26.26.46.18.47.36,1.14-.18,1.47-.47.3-1.13.35-1.57.14" style="fill: #003f89; fill-rule: evenodd;"/>
          <path d="m40.45,13.84s-.03-.02-.04-.04c.02-.06.04-.12.05-.16.18-.03,1.86-.62,1.87-.66.51-.23.97-.52,1.23-1.03-1.12.08-2.29.6-3.38.42-.47-.25-.75-.6-1.06-.84,0-.02,0-.04.01-.06-.48-.51-.41-1,.27-1.05,1.02.5,2.87.13,3.98,0,.25-.05.97-.12,1.2-.29.59-1.37.78-2.84,1.2-4.19.59-.9,1.04-.08,1.53.57.02.09.14.21.22.43.02,0,.03,0,.06.01.16.47.18.68-.31.96-.43.6-.75,1.31-.9,2.1.77.08,1.38-.46,2.24-.27.11.45,0,.79-.46,1.02-.7.15-1.45.25-2.24.4-.34.68-.84,1.5-1.5,1.96-.09.07-.55.32-.65.35-.53.16-1.02.37-1.56.4-1.49.05-1.49-.02-1.75-.04" style="fill: #003f89; fill-rule: evenodd;"/>
        </g>
        <g>
          <path d="m23.44,18.81c-.62-.04-1.34-.48-1.78-.77,0-.16-.02-.32-.01-.47.87-1.41,1.76-2.76,2.44-4.3.13-.66.36-1.38.52-2.04.01-.01.03-.03.05-.05-.01-.02-.02-.04-.02-.05.22-.37.33-.49.75-.19.15.33-.31.93-.38,1.32,0,.7-.03,1.42-.09,2.16q-.05.15-.19.95c-.23.39-.41,1.24-.44,1.71-.3.38-.2,1.14-.57,1.57-.1.04-.19.1-.28.15" style="fill: #003f89; fill-rule: evenodd;"/>
          <path d="m29.04,11.6c-.78.26-1.18-.13-1.77-.41-.09-.2-.02-.37-.06-.51q.17-.12.26-.24c.3-.17.42-.2.76-.36.4-.27,1.22-1.49,1.73-1.31.42.91-.22,2.24-.92,2.83" style="fill: #003f89; fill-rule: evenodd;"/>
          <path d="m22.6,12.44c-.39-.14-.91-1.3-1.08-1.66-.04-.74.61-1.03,1.33-.82.67.41,1.06.53.87,1.39-.34.65-.56.78-1.11,1.1" style="fill: #003f89; fill-rule: evenodd;"/>
          <path d="m28.03,9.65c-.22-.33-.03-1.28-.24-1.41-.18.1-.34.24-.53.33-.55-.04-1.27-.41-1.26-.91.19-.52.1-.37.61-.61.42-.42.83-.83,1.26-1.26.79-.49,1.37-.18,1.75.63.06.61-.13,1.17-.32,1.74-.36.43-.66.86-.97,1.29-.12.07-.22.13-.32.2" style="fill: #003f89; fill-rule: evenodd;"/>
          <path d="m22.39,9.07c-.24-.09-.2-.2-.17-.4-.16-.34-.49-.55-.64-.88-.13-.67-.34-.85.06-1.35.47.02,2.15.18,2.12,1.1-.19.63-.84,1.24-1.37,1.53" style="fill: #003f89; fill-rule: evenodd;"/>
        </g>
        <path d="m13.81,32.08c-.72.5-2.47.17-2.24-.87-.1-.1-.15-.29-.12-.41-.02-.01-.04-.02-.05-.03-.18-1.09-.77-2.14-1.1-3.16-.17-.33-.37-.58-.24-.93.24-.06.51.2.71.4.11-.03.23-.29.27-.46-.08-.72-.02-1.55-.12-2.29-.19-.16-.37-.33-.55-.49-.15.37-.62,1.58-1.03.93.11-.5.18-1.32-.1-1.83-.36-.39-.87-.66-1.03-1.09.07-.6.99-.74,1.52-.51.43.04.43-.77.92.57.01.22.22.35.46.48.04-.05.08-.09.11-.14,0-.58-.02-1.2.03-1.81-.53-.54-.98-.99-1.3-1.64,0-.62.71-.99,1.33-1.18.2-.34.2-.62.19-1.06q.04-.14.19-.35c.21.01.39.09.63.23.49.64-.54,2.58.43,2.74.2-.33-.08-.67-.22-.95.06-.48.8-1.08,1.33-1.26.78-.07.73.36.73,1.03.04.1.07.19.11.27q.99.72,2.35,1.64c.26.41.37.64.47,1.13.01,0,.03.02.04.03-.01.02-.02.04-.03.06.19.38.19,1.01-.27,1.07-1.12-.76-2.23-1.62-3.33-2.32-.01.03-.02.05-.02.07.49.46,1.14,1.7,1.15,2.4-.27.45-.76.63-1.21.51-.08-.12-.05-.22-.07-.36-.33-.58-1.29-1.14-1.78-1.47-.19.38.19,1.51.31,1.98.02.27.04.54.06.81.33.41.68.79,1.04,1.2.13.23.27.47.42.7-.01.02-.02.03-.03.05.16.35.52,1.37-.15,1.37-.06-.04-.12-.07-.18-.12-.21-.53-.61-1.1-1.05-1.42-.16.52.04,1.08-.23,1.52-.22.21-.47.41-.66.52-.02-.01-.04-.02-.05-.03-.14.06-.3.1-.32.18.19.24.38.49.58.73.62,1.08,1.31,2.02,2.12,3.01.05.27.04.35-.04.54" style="fill: #003f89; fill-rule: evenodd;"/>
        <path d="m9.07,27.59c-.28,0-.43-.33-.64-.5-.78-.22-1.36-.38-1.62-1.15.03-.07.07-.14.11-.2.4-.15,1.16-.24,1.66-.27.97.21.64,1.42.48,2.12" style="fill: #003f89; fill-rule: evenodd;"/>
        <path d="m7.04,25.3c-.17.12-.2.09-.28.09-.1-.18-.14-.32-.32-.39-.86-.03-1.75-.67-1.59-1.54.16-.18.32-.07.65.03.72-.15,1.8-.6,1.84.57-.07.42-.21.85-.31,1.25" style="fill: #003f89; fill-rule: evenodd;"/>
        <path d="m51.32,26.41h-8.49c-2.48,0-3.75,2.42-4.69,4.62l-1.43-3.22,2.4-.88c-1.41-1.33-5.79-2.06-6.37-.05l-1.03,4.16c-.82-1.88-1.97-4.62-4.56-4.62h-8.62c1.12,1.98,2.19,2.7,6.16,2.53l.52,1.36-4.35.02c1.28,2.37,2.02,2.47,5.52,2.37l.74,1.63-3.42.12c.73,1.67,1.51,2.39,4.44,2.26l.57,1.45h-2.72c1.02,1.7,1.52,2.47,3.68,2.28l.58,1.58h-1.88c.81,1.82,1.76,1.89,2.92,2.08,1.04.16,1.19,2.11-.02,2.74l3.66,5.93,3.66-5.94c-1.22-.63-1.07-2.58-.02-2.74,1.16-.18,2.11-.25,2.92-2.08h-1.88l.58-1.58c2.15.19,2.66-.58,3.68-2.26h-2.72s.57-1.46.57-1.46c2.93.13,3.71-.58,4.44-2.26l-3.42-.12.74-1.63c3.5.1,4.24,0,5.52-2.37l-4.35-.02.52-1.37c3.96.17,5.03-.54,6.16-2.52" style="fill: #003f89;"/>
        <path d="m64.25,22.34l.03-.07c.12-.31.11-.43.08-.49-.04-.07-.17-.11-.38-.16-.06-.02-.12-.02-.2-.03l-.12-.02-.04-.08s-.08-.08-.14-.12l-.16-.06-.04-.02.21-.16c.15-.12.32-.17.51-.23l.02-.05.08.03c.3-.26.5-.64.53-1.04-.09-.12-.25-.18-.48-.18-.3,0-.66.12-.98.21-.2.07-.44.14-.66.19l-.08-.04c-.54-.26-.57-.27-1.7-.87-.08.06-.15.13-.18.23-.07.16-.06.35.03.52l.11.08h0s0,.01,0,.01l-.27.14c-.06.04-.08.04-.07.04h0l-.08.07s.02.08.07.15l.02.12c0,.11-.02.15-.11.25l-.03.13h0v.02l-.16-.13c-.22-.17-.24-.19-.4-.34-.04,0-.09-.01-.14-.01-.12,0-.22.04-.27.11-.05.07-.04.15,0,.27l-.02.06c-.04.16-.17.44-.68.45h-.26s-.1,0-.18.04c0,.34.15.37.51.43.14.02.28.04.48.09.03-.01.07-.02.1-.02.08,0,.14.03.21.06l.27.11.1.03.05.02-.33.16c-.12.07-.21.11-.33.24-.02.09-.07.18-.15.28v.07s-.15-.03-.15-.03c-.24-.06-.49-.12-.73-.18l-.38-.1c-.67-.18-1.49-.39-2.27-.53-.19-.07-.36-.1-.54-.13l-.37-.04-.02.1c.09.07.21.16.4.28l.02.06c.11.26.28.57.69.8.27.05.55.09.88.12.97.11,1.98.23,2.76.82l.21.1h.05s0,0,0,0h0l-.29.15c-.07.04-.14.08-.23.16l-.09-.02q-.94-.21-1.27-.32c-.34-.22-.5-.29-.68-.29-.14,0-.3.06-.56.22-.02,0-.03.01-.04.02h-.01s-.02.02-.02.03l-.1-.04c-.1-.04-.11-.04-.39-.08-.26-.09-.53-.18-.81-.27-.81-.26-1.65-.54-2.34-1-.2-.17-.34-.33-.45-.46-.04-.05-.06-.07-.08-.07h0l-.07-.08c-.05.01-.14.09-.28.24-.15.46.27,1.56.64,1.88.26.12.54.17.84.22.49.09,1,.18,1.49.59l.13.03h.01s-.12.17-.12.17c-.16.21-.35.38-.56.58l-.09.08c-.06.05-.12.1-.17.16h-.09c-.07.02-.13.03-.21.03-.36,0-.67-.17-.94-.33-.09-.05-.18-.09-.31-.13l-.05.09c.37.65.89,1.24,1.58,1.81l.06.1c.08.05.17.07.25.07h.01c.49-.01,1.02-.68,1.42-1.18.08-.1.16-.21.25-.3l.1-.07c.37-.27.4-.29.38-.29l.09.02c.31.09.51.21.81.37.29-.13.59-.42.56-.74l-.12-.11c-.18-.16-.35-.32-.53-.48l-.09-.02.06-.15c.07-.16.16-.25.29-.38l.02-.07.12.03c.53.12,1,.27,1.58.44l.5.17.12.09c.29.22.5.38.83.38.05,0,.1,0,.18-.04.31-.32.49-.53.61-.78h0s0-.01,0-.02c-.1-.14-.14-.18-.16-.18l.09-.11s.06-.06.15-.11c.85-.27,1.78-.61,2.46-.85.41-.25.45-.28.31-.66-.03-.06-.06-.14-.11-.24m-3.32.51l.14-.12c.19-.18.28-.26.29-.35,0-.03-.05-.08-.13-.14h-.04s-.05,0-.09,0c-.15,0-.25-.07-.3-.14l-.06-.05v-.07s.06-.18.06-.18h-.03s.19-.07.19-.07q.63-.21.73-.27l.05-.08.12.1c.13.12.57.51.64,1.02l-.06.07c-.33.4-.79.46-1.22.48l-.12.03-.06-.18-.08-.05h0Z" style="fill: #003f89;"/>
        <path d="m57.3,21.35c-.19,0-.37-.06-.53-.17-.1-.41.2-.84.42-1.16.07-.11.13-.19.18-.26l.04-.1.07-.14c.09-.17.18-.34.26-.53.03-.1.06-.2.08-.29.13-.53.23-.86.5-.95.21.03.31.06.36.14.05.08.03.18,0,.38l-.03.08c.03.06.04.16.05.25.06.31.07.64.04.93v.12c-.03.12-.06.21-.1.32-.12.37-.26.8-.54,1.05l-.11.11-.08.04c-.19.12-.39.19-.59.19h-.02Z" style="fill: #003f89;"/>
        <path d="m57.3,21.34h.02c.19,0,.39-.07.58-.19l.07-.04.11-.1c.27-.25.41-.67.53-1.05.03-.1.07-.2.08-.31l.02-.12c.03-.33.01-.64-.04-.93-.01-.09-.02-.18-.04-.26h-.01l.03-.07c.04-.19.06-.3.01-.37-.05-.07-.14-.1-.34-.13-.26.09-.36.41-.48.91-.03.1-.06.2-.09.32-.08.19-.17.36-.26.53l-.08.14-.04.09c-.04.08-.1.16-.18.26-.22.32-.52.75-.42,1.14.16.11.33.17.52.17" style="fill: #003f89;"/>
        <path d="m55.43,20.87c-.09,0-.21-.05-.43-.19-.29-.64.74-1.38.86-1.46.17.04.26.13.32.29.12.33.03.79-.19,1.05-.31.22-.44.31-.56.31h0Z" style="fill: #003f89;"/>
        <path d="m55.43,20.85h0c.11,0,.24-.09.54-.3.22-.26.3-.72.19-1.04-.05-.15-.14-.24-.29-.28-.12.08-1.13.81-.86,1.43.21.13.33.19.42.19" style="fill: #003f89;"/>
      </g>
    </g>
    <g>
      <path d="m190.2,14.25c.78-1.6,1.42-3.26,1.9-4.98l1.48.42c-.4,1.41-.89,2.79-1.46,4.14v13.32h-1.48v-10.4c-.54.88-1.11,1.73-1.72,2.54l-.97-1.32c.86-1.16,1.61-2.4,2.25-3.72Zm9.88-5.16c.45.81.88,1.63,1.32,2.46h5.32v1.4h-13.16v-1.4h6.11c-.36-.67-.74-1.33-1.11-2l1.52-.46Zm5.02,5.56v1.28h-10.42v-1.28h10.42Zm0,2.94v1.3h-10.42v-1.3h10.42Zm-.02,2.96v6.56h-1.52v-1.12h-7.33v1.12h-1.52v-6.56h10.36Zm-8.85,4.1h7.33v-2.76h-7.33v2.76Z" style="fill: #004088;"/>
      <path d="m210.48,21.23l1.38.46c-.61,1.69-1.37,3.31-2.29,4.86l-1.3-.7c.88-1.47,1.61-3.01,2.21-4.62Zm5.1-10.2c.24-.64.47-1.29.67-1.96l1.74.32c-.19.56-.38,1.11-.59,1.64h6.8v9.38h-6.62c.76.93,1.5,1.87,2.25,2.82l-1.21.86c-.72-1.01-1.46-2.01-2.25-2.98l.99-.7h-6.64v-9.38h4.86Zm-3.4,2.72h10.57v-1.48h-10.57v1.48Zm0,2.68h10.57v-1.44h-10.57v1.44Zm10.57,2.74v-1.5h-10.57v1.5h10.57Zm-8.02,2.14v2.76c-.01.23,0,.45.06.66.04.12.1.23.18.32.11.11.24.18.41.22.23.05.46.08.69.08h3.12c.24,0,.49-.02.75-.06.12-.04.24-.08.36-.12.13-.09.23-.21.28-.36.07-.19.11-.39.12-.6l.08-1.74,1.48.38c-.05.65-.12,1.3-.18,1.94-.04.33-.13.65-.26.96-.09.19-.22.35-.36.48-.23.17-.48.29-.75.36-.39.07-.78.1-1.15.1h-4.05c-.39,0-.77-.05-1.13-.14-.28-.07-.53-.21-.73-.42-.13-.17-.24-.37-.3-.58-.09-.37-.13-.77-.12-1.18v-3.06h1.52Zm9.09-.24c1,1.45,1.97,2.93,2.91,4.42l-1.3.74c-.89-1.51-1.83-2.99-2.81-4.44l1.19-.72Z" style="fill: #004088;"/>
      <path d="m230.34,25.31c.2,0,.4-.02.59-.06.15-.03.27-.08.36-.16.07-.08.12-.17.16-.26.04-.19.06-.38.06-.58v-4.42c-.92.31-1.83.62-2.73.94l-.49-1.62c1.08-.29,2.15-.63,3.22-1v-3.78h-2.53v-1.58h2.53v-3.54h1.54v3.54h2.12v1.58h-2.12v3.24c.63-.21,1.27-.44,1.92-.68l.24.82.22.76c-.81.27-1.61.53-2.39.8v5.56c0,.35-.04.69-.12,1.02-.07.19-.16.35-.28.5-.2.17-.43.29-.69.34-.38.08-.75.12-1.11.12h-1.6l-.3-1.54h1.4Zm7.37-7.62h-2.06v-1.44h4.39v-2.84h-4.41v-1.46h4.41v-2.82h1.52v2.82h5.18v1.46h-5.18v2.84h3.85v1.48c-.43,1.13-.97,2.21-1.62,3.22-.54.83-1.17,1.57-1.9,2.22.76.61,1.57,1.13,2.45,1.56.9.44,1.84.82,2.81,1.14l-.59,1.6c-1.2-.49-2.36-1.06-3.48-1.7-.84-.48-1.63-1.03-2.37-1.66-.8.55-1.62,1.04-2.47,1.48-1.21.61-2.46,1.19-3.72,1.72l-.81-1.52c1.17-.43,2.33-.91,3.46-1.46.81-.39,1.59-.83,2.35-1.34-1.27-1.39-2.27-2.95-3-4.68l1.19-.62Zm1.52,2.54c.43.67.92,1.29,1.48,1.86,1.4-1.19,2.42-2.65,3.04-4.4h-5.83c.36.88.8,1.73,1.32,2.54Z" style="fill: #004088;"/>
      <path d="m253.35,19.91c1.46-1.52,2.69-3.21,3.68-5.08h-7.47v-1.56h7.79v-4.06h1.58v4.06h7.91v1.56h-7.59c.94,1.85,2.15,3.53,3.62,5.02,1.43,1.43,3,2.69,4.72,3.78l-.93,1.56c-1.7-1.16-3.27-2.48-4.72-3.96-1.16-1.21-2.17-2.54-3.02-3.98v9.94h-1.58v-9.94c-.88,1.44-1.88,2.77-3.02,4-1.4,1.49-2.94,2.85-4.59,4.06l-1.03-1.5c1.67-1.13,3.22-2.43,4.64-3.9Zm8.28-10.56c.99.85,1.97,1.71,2.96,2.56l-1.01,1.06c-.96-.89-1.93-1.77-2.91-2.62l.97-1Z" style="fill: #004088;"/>
      <path d="m279.2,9.17v3.86h7.06v9.18h-1.6v-1.24h-5.47v6.22h-1.6v-6.22h-5.4v1.28h-1.6v-9.22h7v-3.86h1.6Zm-7,10.3h5.4v-4.92h-5.4v4.92Zm7-4.92v4.92h5.47v-4.92h-5.47Z" style="fill: #004088;"/>
      <path d="m291.67,14.95l1.62.34c-.62,2.68-1.43,5.29-2.43,7.82l-1.54-.5c.96-2.49,1.74-5.05,2.35-7.66Zm4.45-1.74v10.14c-.01.29.01.57.08.84.04.15.11.28.22.4.15.15.33.24.55.28.3.07.6.09.91.08h2.37c.34.01.67,0,1.01-.06.18-.04.34-.11.49-.2.16-.12.28-.28.36-.48.08-.27.13-.55.14-.84.04-.97.07-1.96.08-2.96l1.66.36-.16,3.18c-.03.45-.11.89-.26,1.3-.11.24-.26.45-.45.64-.28.24-.61.4-.99.48-.51.11-1.03.16-1.56.16h-3.06c-.51,0-1.01-.05-1.5-.16-.36-.09-.68-.27-.95-.54-.19-.21-.32-.45-.4-.7-.14-.48-.2-.97-.18-1.48v-10.44h1.64Zm1.38-3.98c1.54,1.91,3.04,3.84,4.49,5.8l-1.38.98c-1.4-1.99-2.85-3.94-4.35-5.86l1.23-.92Zm7.21,5.38c1.17,2.47,2.33,4.93,3.46,7.4l-1.54.66c-1.09-2.49-2.22-4.97-3.38-7.44l1.46-.62Z" style="fill: #004088;"/>
    </g>
    <g>
      <path d="m84.37,49.77h-1.56v-9.1h1.56v9.1Z" style="fill: #004188;"/>
      <path d="m94.33,49.77h-1.65l-4.35-6.69c-.11-.17-.2-.34-.27-.53h-.04c.03.19.05.61.05,1.25v5.97h-1.46v-9.1h1.76l4.2,6.53c.18.27.29.46.34.56h.03c-.04-.24-.06-.65-.06-1.23v-5.87h1.45v9.1Z" style="fill: #004188;"/>
      <path d="m101.49,41.95h-3.4v2.74h3.14v1.28h-3.14v3.81h-1.51v-9.1h4.91v1.28Z" style="fill: #004188;"/>
      <path d="m106.86,49.92c-1.31,0-2.36-.43-3.15-1.28-.79-.85-1.18-1.96-1.18-3.32,0-1.46.4-2.63,1.21-3.5s1.9-1.31,3.28-1.31c1.28,0,2.31.42,3.09,1.27.78.85,1.17,1.95,1.17,3.32,0,1.49-.4,2.66-1.2,3.52s-1.87,1.29-3.21,1.29Zm.07-8.08c-.83,0-1.51.31-2.03.93-.52.62-.78,1.44-.78,2.46s.25,1.83.76,2.44,1.17.93,1.99.93c.87,0,1.56-.29,2.06-.88s.76-1.41.76-2.47-.24-1.93-.73-2.52c-.49-.59-1.16-.89-2.02-.89Z" style="fill: #004188;"/>
      <path d="m119.97,49.77h-1.76l-1.45-2.44c-.13-.22-.26-.42-.38-.57-.12-.16-.25-.29-.38-.39-.13-.1-.27-.18-.42-.22s-.32-.07-.51-.07h-.61v3.69h-1.5v-9.1h3c.43,0,.82.05,1.18.15s.67.25.94.46c.27.21.48.46.63.77.15.31.23.67.23,1.08,0,.32-.05.62-.14.89-.09.27-.23.51-.41.72-.18.21-.39.39-.63.54-.25.15-.53.26-.83.34v.03c.17.09.31.2.43.31.12.11.24.23.35.35s.22.25.33.4c.11.15.23.33.36.52l1.62,2.56Zm-5.53-7.88v2.96h1.26c.23,0,.45-.04.64-.11.2-.07.37-.18.51-.31s.26-.3.34-.5.12-.41.12-.65c0-.44-.14-.78-.41-1.02s-.67-.37-1.19-.37h-1.27Z" style="fill: #004188;"/>
      <path d="m130.81,49.77h-1.5v-5.89c0-.48.03-1.07.09-1.77h-.03c-.09.4-.18.68-.25.86l-2.72,6.8h-1.04l-2.72-6.75c-.08-.2-.16-.5-.24-.91h-.03c.03.36.05.96.05,1.78v5.88h-1.4v-9.1h2.13l2.39,6.06c.18.47.3.81.36,1.04h.03c.16-.48.28-.83.38-1.07l2.44-6.04h2.05v9.1Z" style="fill: #004188;"/>
      <path d="m140.52,49.77h-1.66l-.82-2.32h-3.58l-.79,2.32h-1.65l3.41-9.1h1.7l3.38,9.1Zm-2.88-3.55l-1.26-3.63c-.04-.12-.08-.31-.12-.57h-.03c-.04.24-.08.43-.13.57l-1.25,3.63h2.79Z" style="fill: #004188;"/>
      <path d="m146.69,41.95h-2.62v7.82h-1.51v-7.82h-2.61v-1.28h6.73v1.28Z" style="fill: #004188;"/>
      <path d="m149.58,49.77h-1.56v-9.1h1.56v9.1Z" style="fill: #004188;"/>
      <path d="m155.57,49.92c-1.31,0-2.36-.43-3.15-1.28-.79-.85-1.18-1.96-1.18-3.32,0-1.46.4-2.63,1.21-3.5s1.9-1.31,3.28-1.31c1.28,0,2.31.42,3.09,1.27.78.85,1.17,1.95,1.17,3.32,0,1.49-.4,2.66-1.2,3.52s-1.87,1.29-3.21,1.29Zm.07-8.08c-.83,0-1.51.31-2.03.93-.52.62-.78,1.44-.78,2.46s.25,1.83.76,2.44,1.17.93,1.99.93c.87,0,1.56-.29,2.06-.88s.76-1.41.76-2.47-.24-1.93-.73-2.52c-.49-.59-1.16-.89-2.02-.89Z" style="fill: #004188;"/>
      <path d="m169.36,49.77h-1.65l-4.35-6.69c-.11-.17-.2-.34-.27-.53h-.04c.03.19.05.61.05,1.25v5.97h-1.46v-9.1h1.76l4.2,6.53c.18.27.29.46.34.56h.03c-.04-.24-.06-.65-.06-1.23v-5.87h1.45v9.1Z" style="fill: #004188;"/>
      <path d="m181.03,41.95h-2.62v7.82h-1.51v-7.82h-2.61v-1.28h6.73v1.28Z" style="fill: #004188;"/>
      <path d="m187.47,49.77h-5.11v-9.1h4.91v1.28h-3.4v2.58h3.13v1.28h-3.13v2.69h3.6v1.28Z" style="fill: #004188;"/>
      <path d="m195.44,49.38c-.69.36-1.54.53-2.56.53-1.32,0-2.38-.42-3.17-1.25s-1.19-1.93-1.19-3.28c0-1.46.45-2.63,1.34-3.53.89-.9,2.03-1.35,3.39-1.35.88,0,1.61.12,2.19.37v1.5c-.61-.36-1.29-.55-2.03-.55-.99,0-1.78.32-2.4.95-.61.63-.92,1.47-.92,2.53s.29,1.8.86,2.4c.57.59,1.32.89,2.25.89.86,0,1.6-.2,2.23-.61v1.4Z" style="fill: #004188;"/>
      <path d="m204.48,49.77h-1.52v-3.95h-4.28v3.95h-1.51v-9.1h1.51v3.83h4.28v-3.83h1.52v9.1Z" style="fill: #004188;"/>
      <path d="m214.44,49.77h-1.65l-4.35-6.69c-.11-.17-.2-.34-.27-.53h-.04c.03.19.05.61.05,1.25v5.97h-1.46v-9.1h1.76l4.2,6.53c.18.27.29.46.34.56h.03c-.04-.24-.06-.65-.06-1.23v-5.87h1.45v9.1Z" style="fill: #004188;"/>
      <path d="m220.45,49.92c-1.31,0-2.36-.43-3.15-1.28-.79-.85-1.18-1.96-1.18-3.32,0-1.46.4-2.63,1.21-3.5s1.9-1.31,3.28-1.31c1.28,0,2.31.42,3.09,1.27.78.85,1.17,1.95,1.17,3.32,0,1.49-.4,2.66-1.2,3.52s-1.87,1.29-3.21,1.29Zm.07-8.08c-.83,0-1.51.31-2.03.93-.52.62-.78,1.44-.78,2.46s.25,1.83.76,2.44,1.17.93,1.99.93c.87,0,1.56-.29,2.06-.88s.76-1.41.76-2.47-.24-1.93-.73-2.52c-.49-.59-1.16-.89-2.02-.89Z" style="fill: #004188;"/>
      <path d="m231.56,49.77h-5.04v-9.1h1.51v7.83h3.53v1.28Z" style="fill: #004188;"/>
      <path d="m236.24,49.92c-1.31,0-2.36-.43-3.15-1.28-.79-.85-1.18-1.96-1.18-3.32,0-1.46.4-2.63,1.21-3.5s1.9-1.31,3.28-1.31c1.28,0,2.31.42,3.09,1.27.78.85,1.17,1.95,1.17,3.32,0,1.49-.4,2.66-1.2,3.52s-1.87,1.29-3.21,1.29Zm.07-8.08c-.83,0-1.51.31-2.03.93-.52.62-.78,1.44-.78,2.46s.25,1.83.76,2.44,1.17.93,1.99.93c.87,0,1.56-.29,2.06-.88s.76-1.41.76-2.47-.24-1.93-.73-2.52c-.49-.59-1.16-.89-2.02-.89Z" style="fill: #004188;"/>
      <path d="m249.42,49.14c-.95.52-2,.77-3.17.77-1.35,0-2.44-.42-3.27-1.26s-1.25-1.95-1.25-3.33.46-2.57,1.37-3.47c.91-.9,2.07-1.36,3.48-1.36,1.01,0,1.86.15,2.55.44v1.56c-.7-.47-1.53-.7-2.49-.7s-1.76.32-2.38.96c-.62.64-.93,1.47-.93,2.48s.27,1.87.8,2.47c.53.6,1.26.9,2.17.9.63,0,1.17-.12,1.62-.36v-2.16h-1.92v-1.27h3.42v4.32Z" style="fill: #004188;"/>
      <path d="m257.72,40.66l-2.98,5.8v3.31h-1.51v-3.28l-2.91-5.83h1.72l1.79,3.9s.08.22.19.53h.02c.04-.14.11-.31.21-.53l1.87-3.9h1.6Z" style="fill: #004188;"/>
      <path d="m268.8,49.38c-.69.36-1.54.53-2.56.53-1.32,0-2.38-.42-3.17-1.25s-1.19-1.93-1.19-3.28c0-1.46.45-2.63,1.34-3.53.89-.9,2.03-1.35,3.39-1.35.88,0,1.61.12,2.19.37v1.5c-.61-.36-1.29-.55-2.03-.55-.99,0-1.78.32-2.4.95-.61.63-.92,1.47-.92,2.53s.29,1.8.86,2.4c.57.59,1.32.89,2.25.89.86,0,1.6-.2,2.23-.61v1.4Z" style="fill: #004188;"/>
      <path d="m275.64,49.77h-5.11v-9.1h4.91v1.28h-3.4v2.58h3.13v1.28h-3.13v2.69h3.6v1.28Z" style="fill: #004188;"/>
      <path d="m284.98,49.77h-1.65l-4.35-6.69c-.11-.17-.2-.34-.27-.53h-.04c.03.19.05.61.05,1.25v5.97h-1.46v-9.1h1.76l4.2,6.53c.18.27.29.46.34.56h.03c-.04-.24-.06-.65-.06-1.23v-5.87h1.45v9.1Z" style="fill: #004188;"/>
      <path d="m293.07,41.95h-2.62v7.82h-1.51v-7.82h-2.61v-1.28h6.73v1.28Z" style="fill: #004188;"/>
      <path d="m299.51,49.77h-5.11v-9.1h4.91v1.28h-3.4v2.58h3.13v1.28h-3.13v2.69h3.6v1.28Z" style="fill: #004188;"/>
      <path d="m308.16,49.77h-1.76l-1.45-2.44c-.13-.22-.26-.42-.38-.57-.12-.16-.25-.29-.38-.39-.13-.1-.27-.18-.42-.22s-.32-.07-.51-.07h-.61v3.69h-1.5v-9.1h3c.43,0,.82.05,1.18.15s.67.25.94.46c.27.21.48.46.63.77.15.31.23.67.23,1.08,0,.32-.05.62-.14.89-.09.27-.23.51-.41.72-.18.21-.39.39-.63.54-.25.15-.53.26-.83.34v.03c.17.09.31.2.43.31.12.11.24.23.35.35s.22.25.33.4c.11.15.23.33.36.52l1.62,2.56Zm-5.53-7.88v2.96h1.26c.23,0,.45-.04.64-.11.2-.07.37-.18.51-.31s.26-.3.34-.5.12-.41.12-.65c0-.44-.14-.78-.41-1.02s-.67-.37-1.19-.37h-1.27Z" style="fill: #004188;"/>
    </g>
  </g>
</svg>