<?xml version="1.0" encoding="UTF-8" standalone="no"?>
<svg
   id="Layer_1"
   data-name="Layer 1"
   width="1009.76"
   height="304.31"
   viewBox="0 0 1009.76 304.31"
   version="1.1"
   sodipodi:docname="zjusct.svg"
   inkscape:version="1.1.1 (1:1.1+202109281943+c3084ef5ed)"
   xmlns:inkscape="http://www.inkscape.org/namespaces/inkscape"
   xmlns:sodipodi="http://sodipodi.sourceforge.net/DTD/sodipodi-0.dtd"
   xmlns="http://www.w3.org/2000/svg"
   xmlns:svg="http://www.w3.org/2000/svg">
  <sodipodi:namedview
     id="namedview37"
     pagecolor="#505050"
     bordercolor="#ffffff"
     borderopacity="1"
     inkscape:pageshadow="0"
     inkscape:pageopacity="0"
     inkscape:pagecheckerboard="1"
     showgrid="false"
     inkscape:zoom="1.3874584"
     inkscape:cx="501.27629"
     inkscape:cy="87.570194"
     inkscape:window-width="1920"
     inkscape:window-height="1021"
     inkscape:window-x="0"
     inkscape:window-y="28"
     inkscape:window-maximized="1"
     inkscape:current-layer="Layer_1" />
  <defs
     id="defs4">
    <style
       id="style2">.cls-1{fill:#727272;}.cls-2{fill:#fff;}.cls-3{fill:#404040;}.cls-4{fill:#1d1d1d;}.cls-5{fill:#fefefe;}.cls-6{fill:#adadad;}</style>
  </defs>
  <path
     class="cls-1"
     d="M-24.82-50.86c.25-.35-.58-1.19.57-1.15,1.54,0,3.08,0,4.61,0q499.4,0,998.79-.16c5.23,0,5.73,1.52,5.72,6q-.2,147.69-.1,295.37a2.16,2.16,0,0,1-2.12-.44c-2.68-3.53-1.86-7.67-1.87-11.59q-.07-133.38,0-266.78c0-2.48.06-5,0-7.44-.35-8.07-2.77-10.52-10.83-10.9-3.06-.15-6.14-.07-9.21-.07Q476.18-48-8.3-48c-4.94,0-10,.81-14.77-1.37A12.9,12.9,0,0,1-24.82-50.86Z"
     transform="translate(24.88 52.16)"
     id="path6" />
  <path
     class="cls-2"
     d="M983.61,249.22h1.16c-.47.72,1.12,2.43-1.15,2.31-1.34-.08-2.69,0-4,0q-499.62,0-999.23-.16c-1.48,0-5.33,2.83-5.18-2.13l.88-.73a21.69,21.69,0,0,1,2-1.15c5.52-1.46,11.12-1,16.55.07a70.21,70.21,0,0,0,13.7,1.26q482.22,0,964.44,0a65.19,65.19,0,0,1,9.78.26Z"
     transform="translate(24.88 52.16)"
     id="path8" />
  <path
     class="cls-3"
     d="M-23.67,249.22h-1.15V-50.86l1.27.21A6.77,6.77,0,0,1-21-45.22c.15,2.1.16,4.19.16,6.29q0,138.26-.06,276.51C-20.87,241.57-19.51,246.12-23.67,249.22Z"
     transform="translate(24.88 52.16)"
     id="path10" />
  <path
     class="cls-4"
     d="M-23.67,249.22q0-145.93,0-291.86c0-2.67.07-5.34.11-8,2.88-.07,5.76-.2,8.64-.2H972.77c11.79,0,10.84-.89,10.84,10.87q0,144.6,0,289.2h0c-2,1.1-4.14.55-6.21.55q-497.44,0-994.9,0c-2.08,0-4.22.42-6.25-.44Z"
     transform="translate(24.88 52.16)"
     id="path12" />
  <path
     class="cls-1"
     d="M-23.75,249.34c2.87-.12,5.74-.33,8.61-.33h990.7c2.68,0,5.37.13,8.05.21-2.36,1.17-4.9.7-7.36.7q-496.3,0-992.6,0C-18.82,249.93-21.35,250.29-23.75,249.34Z"
     transform="translate(24.88 52.16)"
     id="path14" />
  <path
     class="cls-2"
     d="m 25.63,102.77 c 6.78,-0.35 11.73,1.36 16.78,2.18 12.724639,2.12024 25.76967,1.21585 38.08,-2.64 5.12,-1.59 8.58,-0.53 11,4.17 0.09,0.17 0.25,0.3 0.33,0.47 6.39,13.5 12.54578,17.46788 26.30578,19.75788 3.27,0.55 11.6561,-0.14298 14.56052,-1.1211 C 150.7377,119.4806 166.49,107.96 182.54,97.56 c 8.67,-5.62 17.11,-11.6 25.71,-17.33 1.48,-1 2.67,-2.75 5.31,-2.39 -0.35322,0.868078 -0.76069,1.71308 -1.22,2.53 -13.85,20.62 -25.75875,37.3392 -41.70875,56.4592 -3.1,3.7 -7.50936,7.64903 -11.33936,9.63903 -9.22,4.8 -20.55189,4.46177 -30.46189,0.93177 C 93.453619,134.89128 58.97331,119.97988 25.63,102.77 Z"
     id="path16"
     sodipodi:nodetypes="ccccccccccccccc"
     transform="translate(24.88,52.16)" />
  <path
     class="cls-2"
     d="M728.67,109.49c-8.45,0-16.89-.12-25.34.06-3.22.07-4.19-1-4.32-4.2-1-23.93,7.1-32.37,31.17-32.37,12.28,0,24.57.13,36.85-.08,4-.07,5.79,1.06,5.24,5.12a12.19,12.19,0,0,0,0,1.71c0,7.54,0,7.55-7.38,7.55h-40.3c-3.31,0-6.6.17-9,2.91-1.14,1.3-2.33,2.86-1.71,4.61.68,1.91,2.67,1,4,1,15.36.07,30.71,0,46.07.06,9.78,0,8.37-1.22,8.6,8.51a42.72,42.72,0,0,1-1.35,12.46c-2.5,9.06-10.08,14.95-21.29,15.3-15.72.49-31.47.15-47.21.26-2.7,0-3.56-.9-3.73-3.61-.63-10.37-.73-10.36,9.65-10.36q19,0,38,0c4.17,0,8.07-.62,10.29-4.81,1.42-2.69,1.3-4.23-2.39-4.18C746,109.58,737.31,109.5,728.67,109.49Z"
     transform="translate(24.88 52.16)"
     id="path20" />
  <path
     class="cls-2"
     d="M442.94,132l44.81-45.45c-12.24,0-22.92-.31-33.56.14-5.34.23-5.57-2.43-5.19-6.2.35-3.34-1.87-7.76,4.95-7.66,21.28.32,42.57.12,65.56.12l-44.62,45.67c9.48-.18,17.7.63,25.92-.6,2.14-.32,3.7-1.77,5-3.62,1.11-1.62.49-4.65,3.31-4.82a61.25,61.25,0,0,1,10.92.13c2.27.27,1.14,2.41.93,3.76-1.67,10.55-8,17.66-19.7,18.27C482.18,132.75,463.05,132,442.94,132Z"
     transform="translate(24.88 52.16)"
     id="path22" />
  <path
     class="cls-2"
     d="M819.61,132.4c-10.94,0-21.88,0-32.82,0-2.53,0-4.51-.06-4.43-3.48.22-10.1-.38-20.26.51-30.29,1.42-16,11-25,27-25.54,14.38-.51,28.79,0,43.18-.18,3.14,0,3.89,1.24,3.83,4.07-.24,12.59,1.34,10.09-9.67,10.25-11.51.17-23-.07-34.54.07-10.9.13-15.61,5-15.75,15.91,0,3.44.26,6.9-.07,10.3-.42,4.21,1.43,5,5.28,5,16.31-.18,32.63,0,48.94-.16,4.27-.05,6.1.77,5.9,5.56-.37,8.45-.05,8.47-8.57,8.47Z"
     transform="translate(24.88 52.16)"
     id="path24" />
  <path
     class="cls-2"
     d="M614.12,102.71c0-8.2.16-16.4-.07-24.59-.12-3.93,1.1-5.36,5.19-5.22,11.46.4,9.23-1.25,9.38,9.38s.19,21-.06,31.46c-.09,3.85,1.25,5,4.93,4.77,9-.46,18,.63,27-.87,9.91-1.65,14.35-6.68,14.4-16.64,0-7.82.14-15.64-.06-23.45-.08-3.43,1-4.72,4.55-4.64,12.57.3,10.08-1.17,10.16,9.81.06,8,.82,16-.46,24-2.51,15.52-12.64,24.89-28.45,25.51-14.18.55-28.39.09-42.59.24-3.07,0-4-1.12-3.94-4C614.2,119.87,614.13,111.29,614.12,102.71Z"
     transform="translate(24.88 52.16)"
     id="path26" />
  <path
     class="cls-2"
     d="M603.15,103.2c0,8.2-.12,16.4.07,24.59.07,3.32-.69,4.74-4.43,4.69-14.58-.21-29.17.1-43.75-.16-11.91-.21-22.14-7.65-25.8-17.78-1.24-3.45-1.38-5.38,3.24-5.1,5.33.31,10.77-1.09,14.29,5.28,1.83,3.33,6.61,3.61,10.46,3.68,9,.16,18-.07,27.06.11,3.37.07,4.27-1.24,4.2-4.37-.16-7.43-.2-14.87,0-22.3.1-3.46-1-5.07-4.54-4.54-4.67.7-6.41-1-6.14-5.87.54-9.88-1.21-8.29,8.65-8.44,4-.07,8.07.16,12.08-.06,3.47-.2,4.75,1,4.66,4.52C603,86,603.15,94.61,603.15,103.2Z"
     transform="translate(24.88 52.16)"
     id="path28" />
  <path
     class="cls-5"
     d="M911.23,73c7.48,0,15,.17,22.44-.07,3.74-.12,5.05,1,4.94,4.84-.35,11.11,1.2,9.22-9.41,9.58-5.87.19-13.42-2.53-17.15,1.2-3.46,3.46-.87,10.88-1,16.56-.16,7.62-.21,15.25,0,22.87.11,3.52-1,4.63-4.53,4.51-12.12-.4-9.88,1.54-10-9.9-.15-9.72-.25-19.45.06-29.17.15-4.59-1-6.46-6-6.23-6.15.29-11.34.31-14.41,7.52-1.75,4.13-7.68,1.89-11.5,1.39-3.66-.47-1.15-3.87-.77-5.64,2.39-11.06,10.57-17,23.74-17.45.38,0,.77,0,1.15,0Z"
     transform="translate(24.88 52.16)"
     id="path30" />
  <path
     class="cls-6"
     d="M229.17,168c-21.27-2.59-42.36-5.74-63-11.35l-.51-1.61c7.37-3.62,14.72-7.27,22.12-10.82,1.17-.56,2.2.39,3.12,1,11.43,8.11,24,14.23,36.53,20.35C228.27,166,229.28,166.29,229.17,168Z"
     transform="translate(24.88 52.16)"
     id="path32" />
  <path
     class="cls-6"
     d="M186.59,33.73c21.73,2.43,42.84,5.83,63.55,11.32l.23,1.62-21.29,10.7a2.89,2.89,0,0,1-3.19-.53c-12-8.69-25.41-14.76-38.43-21.59C187.19,35.11,187.1,34.65,186.59,33.73Z"
     transform="translate(24.88 52.16)"
     id="path34" />
  <path
     class="cls-2"
     d="m 415.14,151.37 c -6.78,0.35 -11.73,-1.36 -16.78,-2.18 -12.72464,-2.12024 -25.76967,-1.21585 -38.08,2.64 -5.12,1.59 -8.58,0.53 -11,-4.17 -0.09,-0.17 -0.25,-0.3 -0.33,-0.47 -6.39,-13.5 -12.54578,-17.46788 -26.30578,-19.75788 -3.27,-0.55 -11.6561,0.14298 -14.56052,1.1211 C 290.0323,134.6594 274.28,146.18 258.23,156.58 c -8.67,5.62 -17.11,11.6 -25.71,17.33 -1.48,1 -2.67,2.75 -5.31,2.39 0.35322,-0.86808 0.76069,-1.71308 1.22,-2.53 13.85,-20.62 25.75875,-37.3392 41.70875,-56.4592 3.1,-3.7 7.50936,-7.64903 11.33936,-9.63903 9.22,-4.8 20.55189,-4.46177 30.46189,-0.93177 35.37638,12.50872 69.85669,27.42012 103.2,44.63 z"
     id="path2057"
     sodipodi:nodetypes="ccccccccccccccc" />
</svg>
