<?xml version="1.0" encoding="utf-8"?>
<!-- Generator: Adobe Illustrator 27.2.0, SVG Export Plug-In . SVG Version: 6.00 Build 0)  -->
<svg version="1.1"
	 id="Layer_1" xmlns:sodipodi="http://sodipodi.sourceforge.net/DTD/sodipodi-0.dtd" xmlns:svg="http://www.w3.org/2000/svg" xmlns:inkscape="http://www.inkscape.org/namespaces/inkscape" sodipodi:docname="zjusct.svg"
	 xmlns="http://www.w3.org/2000/svg" xmlns:xlink="http://www.w3.org/1999/xlink" x="0px" y="0px" viewBox="0 0 1009.8 304.3"
	 style="enable-background:new 0 0 1009.8 304.3;" xml:space="preserve">
<style type="text/css">
	.st0{fill:#1D1D1D;}
	.st1{fill:#FFFFFF;}
	.st2{fill:#FEFEFE;}
	.st3{fill:#ADADAD;}
</style>
<sodipodi:namedview  bordercolor="#ffffff" borderopacity="1" id="namedview37" inkscape:current-layer="Layer_1" inkscape:cx="501.27629" inkscape:cy="87.570194" inkscape:pagecheckerboard="1" inkscape:pageopacity="0" inkscape:pageshadow="0" inkscape:window-height="1021" inkscape:window-maximized="1" inkscape:window-width="1920" inkscape:window-x="0" inkscape:window-y="28" inkscape:zoom="1.3874584" pagecolor="#505050" showgrid="false">
	</sodipodi:namedview>
<g id="path35">
	<rect class="st0" width="1009.8" height="304.3"/>
</g>
<path id="path16" sodipodi:nodetypes="ccccccccccccccc" class="st1" d="M50.5,154.9c6.8-0.3,11.7,1.4,16.8,2.2
	c12.7,2.1,25.8,1.2,38.1-2.6c5.1-1.6,8.6-0.5,11,4.2c0.1,0.2,0.2,0.3,0.3,0.5c6.4,13.5,12.5,17.5,26.3,19.8
	c3.3,0.6,11.7-0.1,14.6-1.1c18.1-6.1,33.8-17.6,49.9-28c8.7-5.6,17.1-11.6,25.7-17.3c1.5-1,2.7-2.8,5.3-2.4
	c-0.4,0.9-0.8,1.7-1.2,2.5c-13.9,20.6-25.8,37.3-41.7,56.5c-3.1,3.7-7.5,7.6-11.3,9.6c-9.2,4.8-20.6,4.5-30.5,0.9
	C118.3,187.1,83.9,172.1,50.5,154.9z"/>
<path id="path20" class="st1" d="M753.5,161.6c-8.5,0-16.9-0.1-25.3,0.1c-3.2,0.1-4.2-1-4.3-4.2c-1-23.9,7.1-32.4,31.2-32.4
	c12.3,0,24.6,0.1,36.8-0.1c4-0.1,5.8,1.1,5.2,5.1c0,0.6,0,1.1,0,1.7c0,7.5,0,7.6-7.4,7.6h-40.3c-3.3,0-6.5,0.2-9,2.9
	c-0.6,0.7-2.3,2.1-1.7,3.9c0.7,1.9,2.6,1.7,4,1.7c15.4,0.1,30.7,0,46.1,0.1c9.8,0,8.4-1.2,8.6,8.5c0.2,4.2-0.3,8.4-1.3,12.5
	c-2.5,9.1-10.1,14.9-21.3,15.3c-15.7,0.5-31.5,0.1-47.2,0.3c-2.7,0-3.7-0.9-3.7-3.6c0-10.2-0.7-10.4,9.7-10.4c12.7,0,25.3,0,38,0
	c4.2,0,8.1-0.6,10.3-4.8c1.4-2.7,1.3-4.2-2.4-4.2C770.9,161.7,762.2,161.7,753.5,161.6z"/>
<path id="path22" class="st1" d="M467.8,184.2l44.8-45.4c-12.2,0-22.9,0.1-33.6,0.1c-5.3,0-6-2.4-6-6.2c0-3.3-1.1-7.7,5.8-7.6
	c21.3,0.3,42.6,0.1,65.6,0.1l-44.6,45.7c9.5-0.2,17.7,0.6,25.9-0.6c2.1-0.3,3.7-1.8,5-3.6c1.1-1.6,0.5-4.6,3.3-4.8
	c3.6-0.3,7.3-0.2,10.9,0.1c2.3,0.3,1.1,2.4,0.9,3.8c-1.7,10.6-8,17.7-19.7,18.3C507.1,184.9,487.9,184.2,467.8,184.2z"/>
<path id="path24" class="st1" d="M844.5,184.6c-10.9,0-21.9,0-32.8,0c-2.5,0-4.5-0.1-4.4-3.5c0.2-10.1-0.4-20.3,0.5-30.3
	c1.4-16,11-25,27-25.5c14.4-0.5,28.8,0,43.2-0.2c3.1,0,3.9,1.2,3.8,4.1c-0.2,12.6,1.3,10.1-9.7,10.2c-11.5,0.2-23-0.1-34.5,0.1
	c-10.9,0.1-15.6,5-15.8,15.9c0,3.4-0.1,6.9-0.1,10.3c0,4.2,1.4,5,5.3,5c16.3-0.2,32.6,0,48.9-0.2c4.3-0.1,6.1,0.8,5.9,5.6
	c-0.4,8.4,0,8.5-8.6,8.5L844.5,184.6z"/>
<path id="path26" class="st1" d="M639,154.9c0-8.2,0.2-16.4-0.1-24.6c-0.1-3.9,1.1-5.2,5.2-5.2c10.4,0,9.2-1.2,9.4,9.4
	c0.2,10.6-0.2,21-0.1,31.5c0,3.9,1.2,4.7,4.9,4.8c9.7,0.1,18,0.6,27-0.9c9.9-1.7,14.3-6.7,14.4-16.6c0-7.8,0.1-15.6-0.1-23.4
	c-0.1-3.4,1-4.7,4.5-4.6c12.6,0.3,10.1-1.2,10.2,9.8c0.1,8,0.4,15.9-0.8,23.9c-2.5,17.1-12.3,25-28.1,25.6
	c-14.2,0.6-28.4,0.1-42.6,0.2c-3.1,0-4-1.1-3.9-4C639.1,172,639,163.4,639,154.9z"/>
<path id="path28" class="st1" d="M628,155.4c0,8.2-0.1,16.4,0.1,24.6c0.1,3.3-0.7,4.7-4.4,4.7c-14.6-0.2-29.2,0.1-43.8-0.2
	c-11.9-0.2-22.1-7.7-25.8-17.8c-1.2-3.4-1.4-5.4,3.2-5.1c5.3,0.3,10.8-1.1,14.3,5.3c1.8,3.3,6.6,3.6,10.5,3.7c9,0.2,18,0.1,27.1,0.1
	c3.5,0,4.2-1.2,4.2-4.4c0-7.5,0-14.9,0-22.3c0-3.5-1-4.5-4.5-4.5c-4.9,0-6.4-0.5-6.4-5.8c0.1-9.7-1-8.3,8.9-8.5
	c4-0.1,8.1,0,12.1-0.1c3.5,0,4.8,1,4.7,4.5C627.9,138.2,628,146.8,628,155.4z"/>
<path id="path30" class="st2" d="M936.1,125.2c7.5,0,15-0.1,22.4-0.1c4.2,0,4.9,1,4.9,4.8c0.1,10.8,1.5,9.5-9.4,9.6
	c-7.8,0-13.3-0.5-15.9,2.7c-2.3,2.8-2.3,9.3-2.3,15.1c0,7.6,0.1,15.2,0,22.9c0,3.7-0.7,4.6-4.5,4.5c-11.2-0.3-9.9,1.5-10-9.9
	c-0.2-9.7,0.2-19.3,0.1-29.2c-0.1-4.6-0.8-6.2-6-6.2c-6.2,0-10.7,0.6-14.4,7.5c-2.1,4-7.8,2.6-11.5,1.4c-3.4-1.2-1.6-4-0.8-5.6
	c5.1-10.3,10.6-17,23.7-17.4c0.4,0,0.8,0,1.2,0L936.1,125.2z"/>
<path id="path32" class="st3" d="M254.1,220.2c-21.3-2.6-42.4-5.7-63-11.4l-0.5-1.6c7.4-3.6,14.7-7.3,22.1-10.8
	c1.2-0.6,2.2,0.4,3.1,1c11.4,8.1,24,14.2,36.5,20.4C253.2,218.2,254.2,218.4,254.1,220.2z"/>
<path id="path34" class="st3" d="M211.5,85.9c21.7,2.4,42.8,5.8,63.5,11.3l0.2,1.6L254,109.5c-1.1,0.5-2.3,0.3-3.2-0.5
	c-12-8.7-25.4-14.8-38.4-21.6C212.1,87.3,212,86.8,211.5,85.9z"/>
<path id="path2057" sodipodi:nodetypes="ccccccccccccccc" class="st1" d="M415.1,151.4c-6.8,0.4-11.7-1.4-16.8-2.2
	c-12.7-2.1-25.8-1.2-38.1,2.6c-5.1,1.6-8.6,0.5-11-4.2c-0.1-0.2-0.2-0.3-0.3-0.5c-6.4-13.5-12.5-17.5-26.3-19.8
	c-3.3-0.6-11.7,0.1-14.6,1.1c-18.1,6.1-33.8,17.6-49.9,28c-8.7,5.6-17.1,11.6-25.7,17.3c-1.5,1-2.7,2.8-5.3,2.4
	c0.4-0.9,0.8-1.7,1.2-2.5c13.9-20.6,25.8-37.3,41.7-56.5c3.1-3.7,7.5-7.6,11.3-9.6c9.2-4.8,20.6-4.5,30.5-0.9
	C347.3,119.2,381.8,134.2,415.1,151.4L415.1,151.4z"/>
</svg>
