<?xml version="1.0" encoding="UTF-8" standalone="no"?>
<svg
   version="1.2"
   viewBox="0 0 192 35.893177"
   width="192"
   height="35.893177"
   id="svg10"
   sodipodi:docname="zjusct-dark-new.svg"
   inkscape:version="1.4.2 (ebf0e940, 2025-05-08)"
   xmlns:inkscape="http://www.inkscape.org/namespaces/inkscape"
   xmlns:sodipodi="http://sodipodi.sourceforge.net/DTD/sodipodi-0.dtd"
   xmlns="http://www.w3.org/2000/svg"
   xmlns:svg="http://www.w3.org/2000/svg">
  <defs
     id="defs10" />
  <sodipodi:namedview
     id="namedview10"
     pagecolor="#505050"
     bordercolor="#ffffff"
     borderopacity="1"
     inkscape:showpageshadow="0"
     inkscape:pageopacity="0"
     inkscape:pagecheckerboard="1"
     inkscape:deskcolor="#505050"
     inkscape:zoom="2.2010582"
     inkscape:cx="124.71274"
     inkscape:cy="51.338942"
     inkscape:window-width="1472"
     inkscape:window-height="805"
     inkscape:window-x="0"
     inkscape:window-y="38"
     inkscape:window-maximized="1"
     inkscape:current-layer="svg10" />
  <style
     id="style1">
    .a{fill:#000000}
    .b{fill:#010101}
    .c{fill:#525252}
  </style>
  <path
     class="a"
     d="m 6.9759619,18.828684 c 1.3179578,-0.05814 2.2676623,0.271345 3.2561311,0.426398 2.46148,0.407016 5.000487,0.232581 7.38444,-0.503925 0.988469,-0.310107 1.666829,-0.09691 2.131991,0.814032 0.01939,0.03877 0.03876,0.05814 0.05814,0.09691 1.240431,2.616534 2.422716,3.391804 5.097395,3.837583 0.639597,0.116292 2.267663,-0.01939 2.829734,-0.213199 3.508092,-1.182285 6.551027,-3.411185 9.671484,-5.426885 1.686213,-1.085377 3.314277,-2.248281 4.981105,-3.353039 0.290726,-0.193817 0.523309,-0.542689 1.027231,-0.465162 -0.07752,0.174436 -0.155052,0.32949 -0.232579,0.484543 -2.694061,3.992637 -5.000485,7.229387 -8.082181,10.95068 -0.600837,0.717123 -1.453633,1.47301 -2.190138,1.860646 -1.78312,0.930323 -3.992638,0.872178 -5.911428,0.174435 -6.880513,-2.442097 -13.54783,-5.349357 -20.0213281,-8.683015 z"
     id="path1"
     style="stroke-width:0.193817;fill:#fffff3;fill-opacity:1" />
  <path
     class="a"
     d="m 143.22954,20.12726 c -1.64745,0 -3.27551,-0.01939 -4.90358,0.01939 -0.62021,0.01939 -0.81403,-0.193818 -0.83341,-0.814033 -0.19381,-4.632235 1.37611,-6.279682 6.0471,-6.279682 2.38396,0 4.76791,0.01939 7.13248,-0.01939 0.77527,-0.01939 1.12414,0.213199 1.00785,0.988469 0,0.11629 0,0.213198 0,0.329489 0,1.45363 0,1.473012 -1.43425,1.473012 h -7.81084 c -0.63959,0 -1.25981,0.03876 -1.74436,0.562069 -0.11628,0.135674 -0.44577,0.407017 -0.32948,0.755888 0.13567,0.368253 0.50392,0.32949 0.77527,0.32949 2.98479,0.01939 5.95018,0 8.93498,0.01939 1.8994,0 1.62806,-0.232582 1.66682,1.647447 0.0387,0.814033 -0.0581,1.628065 -0.25196,2.422717 -0.48454,1.763738 -1.95756,2.887878 -4.12831,2.965405 -3.04293,0.09691 -6.10525,0.01939 -9.14817,0.05814 -0.52331,0 -0.71713,-0.174435 -0.71713,-0.697743 0,-1.976936 -0.13567,-2.0157 1.88002,-2.0157 2.46149,0 4.90358,0 7.36507,0 0.81403,0 1.56992,-0.11629 1.99632,-0.930323 0.27134,-0.523307 0.25196,-0.814033 -0.46517,-0.814033 -1.66683,0.01939 -3.35303,0.01939 -5.03925,0 z"
     id="path2"
     style="stroke-width:0.193817;fill:#fffff3;fill-opacity:1" />
  <path
     class="a"
     d="m 87.855937,24.507532 8.683013,-8.799307 c -2.364569,0 -4.438414,0.01939 -6.512264,0.01939 -1.027228,0 -1.162901,-0.465162 -1.162901,-1.201667 0,-0.639598 -0.213198,-1.492394 1.124141,-1.473012 4.128312,0.05814 8.256614,0.01939 12.714414,0.01939 l -8.644255,8.857452 c 1.841274,-0.03877 3.430578,0.11629 5.019872,-0.116291 0.407019,-0.05814 0.717116,-0.348871 0.969083,-0.697742 0.2132,-0.310108 0.0969,-0.891561 0.63959,-0.930324 0.69775,-0.05814 1.41487,-0.03875 2.11262,0.01939 0.44578,0.05814 0.2132,0.465162 0.17443,0.736506 -0.32949,2.054463 -1.55054,3.430567 -3.818194,3.546857 -3.682525,0.155055 -7.403827,0.01939 -11.299549,0.01939 z"
     id="path3"
     style="stroke-width:0.193817;fill:#fffff3;fill-opacity:1" />
  <path
     class="a"
     d="m 160.86692,24.585058 c -2.1126,0 -4.2446,0 -6.35721,0 -0.48454,0 -0.87217,-0.01939 -0.85279,-0.67836 0.0387,-1.957555 -0.0775,-3.934492 0.0969,-5.872665 0.27135,-3.101078 2.13199,-4.845434 5.23307,-4.942342 2.79097,-0.09691 5.58194,0 8.37291,-0.03876 0.60083,0 0.75589,0.232581 0.73651,0.794651 -0.0387,2.442098 0.25196,1.957555 -1.88003,1.976937 -2.2289,0.03877 -4.45779,-0.01939 -6.6867,0.01939 -2.11261,0.01939 -3.02355,0.969087 -3.06231,3.081696 0,0.658979 -0.0194,1.337339 -0.0194,1.996318 0,0.814033 0.27135,0.969087 1.02723,0.969087 3.15924,-0.03876 6.31846,0 9.47767,-0.03876 0.83343,-0.01939 1.18229,0.155055 1.14353,1.085377 -0.0775,1.628066 0,1.647447 -1.66683,1.647447 z"
     id="path4"
     style="stroke-width:0.193817;fill:#fffff3;fill-opacity:1" />
  <path
     class="a"
     d="m 121.03746,18.828684 c 0,-1.589302 0.0387,-3.178605 -0.0194,-4.767906 -0.0194,-0.755888 0.2132,-1.007851 1.00785,-1.007851 2.0157,0 1.78312,-0.232581 1.82188,1.821884 0.0387,2.054463 -0.0387,4.070164 -0.0194,6.105245 0,0.755887 0.23258,0.910942 0.9497,0.930324 1.88003,0.01939 3.48871,0.11629 5.23307,-0.174437 1.91879,-0.329488 2.77158,-1.298576 2.79097,-3.217367 0,-1.511775 0.0194,-3.023551 -0.0194,-4.535326 -0.0194,-0.658979 0.19382,-0.910942 0.87218,-0.891559 2.4421,0.05814 1.95756,-0.232581 1.97693,1.89941 0.0194,1.550538 0.0775,3.081695 -0.15505,4.632234 -0.48455,3.314276 -2.38395,4.845434 -5.44627,4.961723 -2.7522,0.116291 -5.50441,0.01939 -8.25661,0.03877 -0.60084,0 -0.77528,-0.213199 -0.7559,-0.775269 0.0387,-1.705593 0.0194,-3.372422 0.0194,-5.019869 z"
     id="path5"
     style="stroke-width:0.193817;fill:#fffff3;fill-opacity:1" />
  <path
     class="a"
     d="m 118.90546,18.925593 c 0,1.589302 -0.0194,3.178604 0.0194,4.767906 0.0194,0.639597 -0.13567,0.910941 -0.85279,0.910941 -2.82975,-0.03875 -5.65948,0.01939 -8.48921,-0.03875 -2.30643,-0.03877 -4.28336,-1.492393 -5.00048,-3.449948 -0.23259,-0.65898 -0.27135,-1.046615 0.62021,-0.988469 1.02723,0.05814 2.09323,-0.2132 2.77159,1.027232 0.34888,0.639597 1.27919,0.697742 2.03508,0.717124 1.74435,0.03877 3.48872,0.01939 5.25245,0.01939 0.67836,0 0.81403,-0.23258 0.81403,-0.852796 0,-1.453629 0,-2.887878 0,-4.322126 0,-0.67836 -0.19381,-0.872177 -0.87217,-0.872177 -0.94971,0 -1.24044,-0.09691 -1.24044,-1.124141 0.0194,-1.880029 -0.19381,-1.608684 1.72498,-1.647447 0.77526,-0.01939 1.56993,0 2.34519,-0.01939 0.67836,0 0.93033,0.193817 0.91094,0.872178 -0.0582,1.666829 -0.0387,3.333657 -0.0387,5.000486 z"
     id="path6"
     style="stroke-width:0.193817;fill:#fffff3;fill-opacity:1" />
  <path
     class="b"
     d="m 178.62059,13.072308 c 1.45362,0 2.90725,-0.01939 4.34151,-0.01939 0.81403,0 0.9497,0.193818 0.9497,0.930324 0.0194,2.093228 0.29073,1.841265 -1.82188,1.860646 -1.51178,0 -2.57777,-0.09691 -3.08169,0.523307 -0.44578,0.542688 -0.44578,1.802501 -0.44578,2.926641 0,1.473012 0.0194,2.946024 0,4.438417 0,0.717125 -0.13567,0.89156 -0.87218,0.872179 -2.17076,-0.05814 -1.9188,0.290726 -1.93818,-1.918792 -0.0387,-1.880028 0.0387,-3.740675 0.0194,-5.659466 -0.0194,-0.89156 -0.15506,-1.201667 -1.1629,-1.201667 -1.20168,0 -2.07385,0.116289 -2.79098,1.45363 -0.40701,0.775269 -1.51177,0.503925 -2.2289,0.271344 -0.65897,-0.232581 -0.3101,-0.775269 -0.15506,-1.085377 0.98848,-1.996319 2.05447,-3.294896 4.59348,-3.372422 q 0.11628,0 0.23258,0 z"
     id="path7"
     style="stroke-width:0.193817;fill:#fffff3;fill-opacity:1" />
  <path
     class="c"
     d="M 46.437169,31.484956 C 42.30886,30.981031 38.219316,30.380197 34.226679,29.275438 l -0.09691,-0.310108 c 1.43425,-0.697742 2.849116,-1.414866 4.283366,-2.093227 0.23258,-0.11629 0.426398,0.07753 0.600833,0.193818 2.209517,1.56992 4.651614,2.752205 7.074333,3.953873 0.174434,0.07753 0.368253,0.11629 0.348869,0.465162 z"
     id="path8"
     style="stroke-width:0.193817;fill:#adadad;fill-opacity:1" />
  <path
     class="c"
     d="m 38.180554,5.4552881 c 4.205833,0.4651617 8.295381,1.1241406 12.307397,2.1901354 l 0.03873,0.3101078 -4.108928,2.0738457 c -0.2132,0.09691 -0.445781,0.05814 -0.620215,-0.096908 C 43.47173,8.2462586 40.874581,7.0639731 38.354956,5.7460153 38.296813,5.7266276 38.277425,5.6297247 38.18052,5.4552891 Z"
     id="path9"
     style="stroke-width:0.193817;fill:#adadad;fill-opacity:1" />
  <path
     class="a"
     d="m 77.641762,18.150323 c -1.31796,0.07753 -2.267663,-0.271343 -3.256131,-0.426398 -2.461477,-0.407016 -5.000487,-0.23258 -7.384439,0.503925 -0.988469,0.310108 -1.66683,0.09691 -2.131995,-0.814033 -0.01939,-0.03877 -0.03873,-0.05814 -0.09691,-0.09691 -1.240435,-2.616535 -2.422721,-3.391804 -5.0974,-3.837584 -0.639597,-0.11629 -2.267658,0.01939 -2.829731,0.2132 -3.508095,1.182286 -6.551024,3.411185 -9.671487,5.426885 -1.686208,1.085378 -3.314276,2.24828 -4.981106,3.353039 -0.290724,0.193819 -0.523304,0.542689 -1.02723,0.465162 0.07753,-0.174435 0.155051,-0.329489 0.23258,-0.484543 2.69406,-3.992637 5.000489,-7.229386 8.082184,-10.950679 0.600833,-0.717125 1.453628,-1.473012 2.190135,-1.8606462 1.783118,-0.9303235 3.992637,-0.8721787 5.91143,-0.1744355 6.880514,2.4420987 13.56721,5.3493587 20.02133,8.6830157 z"
     id="path10"
     style="stroke-width:0.193817;fill:#fffff3;fill-opacity:1" />
</svg>
